<?xml version="1.0" encoding="UTF-8"?>
<svg xmlns="http://www.w3.org/2000/svg" id="Ebene_2" data-name="Ebene 2" width="177" height="177" viewBox="0 0 177 177">
  <defs>
    <style>
      .cls-1 {
        fill: #1e5a64;
      }

      .cls-2 {
        fill: none;
        stroke: #1e5a64;
        stroke-width: 2px;
      }
    </style>
  </defs>
  <g id="Ebene_1-2" data-name="Ebene 1">
    <g id="b">
      <g id="c">
        <circle class="cls-2" cx="88.5" cy="88.5" r="87.5"></circle>
      </g>
    </g>
    <g>
      <path class="cls-2" d="m100.21,47.09c0-8.86-7.18-16.04-16.04-16.04s-16.05,7.18-16.05,16.04,7.18,16.05,16.05,16.05,16.04-7.19,16.04-16.05Z"></path>
      <g>
        <path class="cls-2" d="m79.96,35.39c1.89,4.63,9.94,8.06,14.23,8.4"></path>
        <path class="cls-2" d="m82.54,38.99c-2.14,2.14-6.86,3.94-8.4,4.29"></path>
      </g>
      <path class="cls-2" d="m136.25,107.79c-1.41-10.29-10.23-18.22-20.91-18.22-11.65,0-21.1,9.44-21.1,21.1s9.45,21.1,21.1,21.1c3.23,0,6.29-.73,9.03-2.02"></path>
      <path class="cls-1" d="m108.15,119.14l.58-.82c.41-.55.89-.62,1.54-.21.86.62,2.72,1.96,5.28,1.96s4.26-1.37,4.26-3.47c0-5.36-11.67-4.15-11.67-11.7,0-4.09,3.43-6.73,7.86-6.73,2.89,0,5.15,1.13,6.07,1.86.59.41.66.92.35,1.54l-.48.86c-.41.72-.96.65-1.54.31-.93-.55-2.41-1.41-4.47-1.41-2.5,0-4.36,1.31-4.36,3.4,0,5.22,11.68,3.81,11.68,11.61,0,3.81-2.85,6.9-7.7,6.9-3.5,0-6.18-1.61-7.27-2.51-.45-.41-.65-.89-.13-1.58Z"></path>
      <line class="cls-2" x1="115.34" y1="116.3" x2="115.34" y2="125.52"></line>
      <line class="cls-2" x1="115.34" y1="94.39" x2="115.34" y2="110.07"></line>
      <path class="cls-2" d="m146.54,122.49c0-5.23-4.23-9.47-9.47-9.47s-9.47,4.24-9.47,9.47,4.24,9.47,9.47,9.47,9.47-4.23,9.47-9.47Z"></path>
      <g>
        <line class="cls-2" x1="52.06" y1="118.55" x2="52.06" y2="101.05"></line>
        <path class="cls-2" d="m52.04,101.05c0-13.4,13.35-11.36,13.35-11.36,0,0-1.36,10.08-9.85,10.43"></path>
        <path class="cls-2" d="m47.78,100.2c-.55-12.47-13.32-10.51-13.32-10.51,0,0,1.36,10.08,9.85,10.43l3.47.08Z"></path>
      </g>
      <path class="cls-2" d="m113.48,84c-3.1-6.79-8.7-11.18-16.44-11.18h-25.75c-7.74,0-13.34,4.39-16.44,11.18"></path>
      <polyline class="cls-2" points="91.35 77.3 84.16 84.37 76.97 77.3"></polyline>
      <polygon class="cls-2" points="84.08 84.75 89.15 115.36 84.08 120.35 79.17 115.36 84.08 84.75 84.08 84.75"></polygon>
      <path class="cls-2" d="m61.52,122.49c0-5.23-4.23-9.47-9.47-9.47s-9.47,4.24-9.47,9.47,4.24,9.47,9.47,9.47,9.47-4.23,9.47-9.47Z"></path>
    </g>
  </g>
</svg>
