<?xml version="1.0" encoding="UTF-8"?>
<svg xmlns="http://www.w3.org/2000/svg" id="Ebene_2" data-name="Ebene 2" width="177" height="177" viewBox="0 0 177 177">
  <defs>
    <style>
      .cls-1 {
        fill: #1e5a64;
      }

      .cls-2 {
        fill: none;
        stroke: #1e5a64;
        stroke-width: 2px;
      }
    </style>
  </defs>
  <g id="Ebene_1-2" data-name="Ebene 1">
    <g id="b">
      <g id="c">
        <circle class="cls-2" cx="88.5" cy="88.5" r="87.5"></circle>
      </g>
    </g>
    <g>
      <path class="cls-2" d="m120.51,143.81l-2.23-6.53c-1.64-4.04-4.8-6.68-9.26-6.68h-14.13c-4.25,0-7.32,2.41-9.02,6.13l-2.59,7.08"></path>
      <path class="cls-2" d="m110.76,114.86c0-4.86-3.94-8.8-8.8-8.8s-8.8,3.94-8.8,8.8,3.94,8.81,8.8,8.81,8.8-3.95,8.8-8.81Z"></path>
    </g>
    <path class="cls-2" d="m106.05,48.39c-6.06-2.96-12.86-4.63-20.06-4.63-9.94,0-19.14,3.17-26.63,8.55"></path>
    <path class="cls-2" d="m118.31,121.82c8.27-8.28,13.39-19.71,13.39-32.33,0-1.67-.09-3.32-.27-4.94"></path>
    <path class="cls-2" d="m40.95,97.44c3.29,18.78,18.04,33.62,36.78,37.03"></path>
    <g>
      <path class="cls-1" d="m115.54,70.42l.75-1.05c.53-.7,1.14-.79,1.98-.27,1.09.79,3.47,2.51,6.76,2.51s5.45-1.75,5.45-4.44c0-6.85-14.94-5.32-14.94-14.98,0-5.24,4.4-8.61,10.06-8.61,3.69,0,6.59,1.45,7.78,2.37.75.53.84,1.19.44,1.98l-.62,1.1c-.53.92-1.23.83-1.97.39-1.19-.71-3.08-1.8-5.72-1.8-3.21,0-5.57,1.68-5.57,4.36,0,6.68,14.94,4.88,14.94,14.85,0,4.88-3.64,8.83-9.85,8.83-4.48,0-7.91-2.07-9.32-3.21-.57-.53-.83-1.14-.17-2.02Z"></path>
      <line class="cls-2" x1="124.74" y1="66.79" x2="124.74" y2="78.58"></line>
      <line class="cls-2" x1="124.74" y1="38.74" x2="124.74" y2="58.81"></line>
    </g>
    <g>
      <path class="cls-2" d="m50.84,76.73c12.03-.5,13.95-14.77,13.95-14.77,0,0-18.9-2.89-18.9,16.09v12.94"></path>
      <path class="cls-2" d="m40.89,69.44c-12.03-.5-13.95-14.77-13.95-14.77,0,0,18.9-2.89,18.9,16.09v17.94"></path>
    </g>
  </g>
</svg>
