<?xml version="1.0" encoding="UTF-8"?><svg xmlns="http://www.w3.org/2000/svg" width="154.23" height="154.23" xmlns:xlink="http://www.w3.org/1999/xlink" viewBox="0 0 154.23 154.23"><defs><style>.e,.f,.g,.h,.i,.j{fill:none;}.k{fill:#fff;}.l{fill:#155e64;}.f,.g,.h{stroke-linecap:round;stroke-linejoin:round;}.f,.g,.h,.j{stroke-width:2.43px;}.f,.i,.j{stroke:#000;}.g{stroke:#1d1d1b;}.h{stroke:#1d1e1b;}.i{stroke-width:.81px;}.i,.j{stroke-miterlimit:10;}.m{clip-path:url(#d);}.n{isolation:isolate;}</style><clipPath id="d"><rect class="e" x="0" y="0" width="154.23" height="154.23"/></clipPath></defs><g id="a"/><g id="b"><g id="c"><g class="m"><g class="n"><g><path class="l" d="M69.67,51.55l-.97-11.98s-.16-4.69,4.37-5.67c4.53-.97,9.71-2.1,9.71-2.1,0,0,7.28-1.13,9.06,4.53s2.75,10.52,2.75,10.52l-24.92,4.69Z"/><path class="h" d="M119.03,94.43c.16-.32,.49-.48,.81-.81l3.4-2.27c1.13-.81,.97-1.29,.97-1.29v-.16s0-.65-1.3-.97l-3.88-1.13c-.97-.32-1.78-1.13-2.1-2.1-.16-.65-.32-1.29-.32-1.94,0,0-.97-4.53,.97-5.34,1.94-.81,3.88-1.29,5.83-1.78,0,0,1.46-.32,2.1,1.46,1.29,3.07,1.78,6.64,1.13,9.87l.32,1.62,.32,1.62c1.62,2.91,2.43,6.31,2.26,9.71,0,1.94-1.62,2.1-1.62,2.1"/><line class="h" x1="119.36" y1="81.49" x2="122.75" y2="82.94"/><line class="h" x1="123.89" y1="86.34" x2="119.36" y2="84.4"/><line class="h" x1="121.95" y1="96.21" x2="125.34" y2="97.67"/><path class="h" d="M110.94,99.94c-.16-.81,0-1.62,.49-2.27l2.26-3.4c.81-1.13,.32-1.46,.32-1.46l-.16-.16s-.16-.65-1.46-.48l-4.05,.32c-1.13,0-2.1-.32-2.75-1.13-.49-.49-.81-1.13-1.13-1.62,0,0-2.43-3.88-.97-5.34,1.46-1.29,3.07-2.59,4.86-3.72,.81-.48,1.94-.32,2.43,.65,2.43,2.43,3.88,5.5,4.53,8.9l.81,1.46,.81,1.46c2.59,2.1,4.53,5.02,5.5,8.42,.32,.81,.16,1.29,0,1.62"/><line class="h" x1="106.73" y1="86.18" x2="110.45" y2="86.34"/><line class="h" x1="112.72" y1="89.09" x2="107.38" y2="88.77"/><line class="h" x1="114.34" y1="98.96" x2="118.06" y2="99.13"/><path class="h" d="M116.93,108.03c-1.13,1.3-2.43,2.59-3.88,3.72-1.62,1.29-5.18-1.78-5.18-1.78-.48-.49-.97-.97-1.46-1.46-.65-.81-.97-1.78-.81-2.91l.97-3.88c.32-1.29-.16-1.62-.16-1.62h-.16s-.49-.49-1.62,.16l-3.56,1.94c-.97,.49-2.1,.32-2.91-.16-.65-.32-1.13-.65-1.78-.97,0,0-3.72-2.75-2.91-4.85,.97-1.78,1.94-3.56,3.07-5.18,.65-.81,1.78-.97,2.59-.32,3.07,1.46,5.66,3.72,7.44,6.64l1.29,1.13h.16l1.29,.97c3.24,1.13,5.99,3.07,8.09,5.83,.32,.32,.65,.65,.65,1.13"/><path class="h" d="M117.9,106.09c0,.49,0,.97-.32,1.46-.16,.16-.32,.32-.49,.65"/><line class="h" x1="96.7" y1="96.38" x2="100.26" y2="95.08"/><line class="h" x1="102.85" y1="97.35" x2="98.64" y2="98.8"/><line class="h" x1="108.51" y1="105.44" x2="112.07" y2="104.14"/><line class="h" x1="114.34" y1="106.73" x2="110.45" y2="108.03"/><path class="g" d="M70.97,55.43c2.59,6.47,9.87,9.71,16.35,7.28,4.86-1.94,8.09-6.47,8.09-11.81"/><line class="g" x1="92.17" y1="37.63" x2="94.43" y2="45.4"/><path class="g" d="M92.17,37.63c-.97-3.56-4.21-5.99-7.77-5.99-.49,0-1.13,0-1.62,.16l-.32,.16-7.77,1.62c-5.34,1.13-6.15,4.37-5.83,7.93,.32,2.91,.97,10.2,.97,10.2l41.27-8.74"/><polygon class="l" points="92.65 71.13 82.29 81.32 71.94 71.13 92.65 71.13"/><polygon class="g" points="92.65 71.13 82.29 81.32 71.94 71.13 92.65 71.13"/><path class="g" d="M104.47,78.57c-2.43-5.34-5.99-7.61-12.14-7.61h-20.23c-8.09,0-13.27,6.15-14.73,14.73l-3.56,27.51"/><line class="g" x1="65.95" y1="113.37" x2="65.95" y2="92.49"/><path class="g" d="M131.82,110.13c0-4.21-3.4-7.44-7.45-7.44s-7.44,3.4-7.44,7.44,3.4,7.45,7.44,7.45,7.45-3.24,7.45-7.45Z"/><path class="j" d="M36.98,30.18c6.26,0,11.33,5.07,11.33,11.33s-5.07,11.33-11.33,11.33-11.33-5.07-11.33-11.33,5.07-11.33,11.33-11.33Z"/><path d="M33.91,45.07l.16-.32c.16-.16,.32-.32,.65,0,.65,.49,1.46,.81,2.27,.81,1.13,0,1.78-.65,1.78-1.46,0-2.27-4.85-1.78-4.85-4.85,0-1.78,1.46-2.91,3.24-2.91,.97,0,1.78,.32,2.59,.81,.16,.16,.32,.32,.16,.65l-.16,.32c-.16,.32-.32,.32-.65,.16-.49-.32-1.13-.65-1.94-.65-.97,0-1.78,.49-1.78,1.46,0,2.27,4.86,1.62,4.86,4.85,0,1.62-1.13,2.91-3.24,2.91-1.13,0-2.27-.32-3.07-1.13-.16-.16-.32-.49,0-.65"/><path class="i" d="M33.91,45.07l.16-.32c.16-.16,.32-.32,.65,0,.65,.49,1.46,.81,2.27,.81,1.13,0,1.78-.65,1.78-1.46,0-2.27-4.85-1.78-4.85-4.85,0-1.78,1.46-2.91,3.24-2.91,.97,0,1.78,.32,2.59,.81,.16,.16,.32,.32,.16,.65l-.16,.32c-.16,.32-.32,.32-.65,.16-.49-.32-1.13-.65-1.94-.65-.97,0-1.78,.49-1.78,1.46,0,2.27,4.86,1.62,4.86,4.85,0,1.62-1.13,2.91-3.24,2.91-1.13,0-2.27-.32-3.07-1.13-.16-.16-.32-.49,0-.65Z"/><line class="f" x1="36.82" y1="43.94" x2="36.82" y2="47.82"/><line class="f" x1="36.82" y1="34.71" x2="36.82" y2="41.35"/><line class="j" x1="27.43" y1="47.82" x2="45.88" y2="34.71"/><path d="M33.9,65.14q-.16,0-.32,.16l-3.24,5.5c-.16,.32,0,.48,.16,.48l9.39,5.67h.32q.16,0,.32-.16l3.24-5.5c.16-.32,.16-.48-.16-.65l-9.39-5.67c-.16,.16-.32,.16-.32,.16m6.15,13.11c-.16,0-.49,0-.65-.16l-9.55-5.66c-.65-.32-.81-.97-.81-1.62v-.32l3.56-5.83,.16-.16,.16-.16c.32-.16,.65-.32,.81-.32s.49,0,.65,.16l9.55,5.66c.65,.32,.81,.97,.81,1.62,0,.16-.16,.32-.16,.49-1.13,1.78-2.26,3.72-3.24,5.5-.32,.48-.81,.81-1.29,.81"/><path d="M34.88,74.53c1.62,.97,3.24,1.94,4.69,2.75,.32,.32,.81,.16,.97-.32,1.13-1.78,2.1-3.56,3.24-5.5,.16-.32,.16-.81-.32-.97-3.08-1.94-6.31-3.72-9.39-5.66-.32-.32-.81-.16-.97,.32-1.13,1.78-2.27,3.72-3.24,5.5,0,0,0,.16-.16,.16-.16,.32,0,.65,.32,.81,1.78,.97,3.4,1.94,4.86,2.91m-1.94-9.87l.16-.16c.32-.32,.81-.32,1.29-.16h.16c3.08,1.94,6.31,3.72,9.39,5.67,.49,.32,.65,.81,.65,1.29,0,.16,0,.32-.16,.32-1.13,1.78-2.27,3.72-3.24,5.5-.32,.49-.97,.81-1.62,.49h-.16c-3.08-1.94-6.31-3.72-9.39-5.66-.49-.32-.65-.81-.65-1.29v-.16c1.29-1.78,2.43-3.88,3.56-5.83"/><path d="M35.69,68.22c.32,.16,.49,.32,.81,.49l.16-.16v-.32c-.16-.16-.49-.32-.65-.32s-.16,.16-.32,.32m-2.27-.32q-.16,.32,0,.65c.32,.16,.65,.32,.97,.49h.16c0-.16,.16-.32,.16-.32-.32-.16-.81-.49-1.3-.81m2.91,1.13c-.32-.16-.49-.32-.81-.49-.16,.32-.32,.49-.49,.81,.16,.16,.32,.32,.65,.32h.32c0-.16,.16-.32,.32-.65m-.81-1.46c-.32-.32-.81-.49-1.13-.65h-.32c-.16,.16-.32,.49-.32,.65,.49,.32,.97,.49,1.46,.81,0-.32,.16-.48,.32-.81m-1.29,1.94c-.32-.16-.65-.48-.97-.65-.32-.16-.49-.65-.32-.97,.16-.32,.49-.81,.65-1.13,.16-.32,.65-.49,.97-.32,.65,.49,1.46,.81,2.1,1.29,.32,.16,.49,.65,.32,.97-.16,.32-.48,.81-.65,1.13-.16,.32-.65,.48-.97,.32-.32-.32-.65-.49-1.13-.65"/><rect x="33.29" y="68.4" width="1.13" height="5.5" transform="translate(-44.59 63.83) rotate(-59.22)"/><polygon points="40.38 75.5 36.66 73.39 37.14 72.59 41.03 74.85 40.7 75.66 40.38 75.5"/><path class="k" d="M35.69,68.22c0-.16,.16-.32,.16-.32,.16,.16,.48,.32,.65,.32v.32s0,.16-.16,.16c0-.16-.32-.32-.65-.49"/><circle class="j" cx="36.98" cy="71.13" r="11.33" transform="translate(-35.34 105.72) rotate(-88.09)"/><line class="j" x1="27.43" y1="77.28" x2="45.88" y2="64.33"/><path class="j" d="M37.14,89.25c6.26,0,11.33,5.07,11.33,11.33s-5.07,11.33-11.33,11.33-11.33-5.07-11.33-11.33,5.07-11.33,11.33-11.33Z"/><line class="j" x1="27.59" y1="106.89" x2="46.04" y2="93.79"/><path d="M33.42,98.48h0c-.65-.32-1.13-.65-1.62-.97-.16-.16-.32-.16-.32-.32,0-.32-.16-.49-.16-.81s-.32-.32-.48-.32-.32,.32-.32,.49v.32c0,.16,0,.49-.32,.49q-.16,0-.32,.16c-.32,0-.49,.32-.32,.65,.16,.32,.32,.32,.65,.32,.16,0,.49-.16,.65-.16h.48c.49,.32,.97,.65,1.62,.97h.16c0-.32,.16-.49,.32-.81m7.77,7.44c.16,0,.32-.16,.65-.16,1.94-.81,2.91-3.07,2.1-5.18-.65-1.94-2.91-3.08-4.86-2.43-.97,.32-1.94,.32-2.91,.16-.81-.16-1.29,0-1.94,.49-.97,.81-.97,1.94-.65,2.75,.16,.48,.49,.81,.97,.97,.81,.49,1.62,1.13,2.1,1.94,1.3,1.29,3.08,1.94,4.53,1.46m-12.62-7.77c0-.32,0-.65,.16-.81l.48-.49c.16,0,.16-.16,.16-.16,0-.81,.81-1.62,1.62-1.46,.49,.16,.81,.48,.97,.97v.16c0,.16,0,.49,.16,.65,.16,.16,.32,.16,.49,.32,.48,.32,.81,.48,1.29,.81h.16c.65-.48,1.46-.65,2.26-.48,.65,.16,1.3,.16,1.78,0,.16,0,.32,0,.49-.16,2.43-.65,5.02,.49,5.99,2.91,.97,2.43,0,5.18-2.27,6.31-2.1,1.13-4.86,.49-6.31-1.62-.32-.65-.97-.97-1.46-1.46-.32-.32-.81-.49-.97-.81-.65-.65-.97-1.46-.81-2.27q0-.16-.16-.16c-.49-.32-1.13-.65-1.62-.97h-.32c-.32,0-.49,.16-.81,.16-.49,0-.97-.32-1.29-.81v-.65Z"/><path d="M40.86,101.72c-.16,0-.49,0-.49-.32s0-.48,.32-.48c.16,0,.49,.16,.49,.32s-.16,.32-.32,.48"/><path d="M42,99.61c0,.32,0,.49-.32,.49-.16,0-.49-.16-.49-.32,0-.32,.16-.49,.32-.49,.32,0,.49,0,.49,.32"/><path d="M42.32,101.55c0-.32,0-.49,.32-.49,.16,0,.49,0,.49,.32s0,.48-.32,.48c-.16,0-.49-.16-.49-.32"/><circle class="j" cx="77.12" cy="77.12" r="75.9" transform="translate(-.41 153.83) rotate(-89.7)"/></g></g></g></g></g></svg>