<?xml version="1.0" encoding="UTF-8"?><svg xmlns="http://www.w3.org/2000/svg" width="153.51" height="155.58" xmlns:xlink="http://www.w3.org/1999/xlink" viewBox="0 0 153.51 155.58"><defs><style>.e,.f,.g,.h{fill:none;}.i{fill:#1e5a64;}.j{fill:#1d1d1b;}.k{fill:#45b4b4;}.f,.g{stroke-linecap:round;stroke-linejoin:round;}.f,.g,.h{stroke:#1d1d1b;}.f,.h{stroke-width:2.37px;}.g{stroke-width:2.41px;}.l{clip-path:url(#d);}.m{isolation:isolate;}.h{stroke-miterlimit:10;}</style><clipPath id="d"><rect class="e" width="153.51" height="155.58"/></clipPath></defs><g id="a"/><g id="b"><g id="c"><g class="l"><g class="m"><g><polygon class="k" points="67.92 94.42 62.56 90.8 62.56 74.55 67.92 74.55 67.92 94.42"/><polygon class="k" points="60.51 87.01 56.88 79.12 56.88 77.54 60.51 77.54 60.51 87.01"/><polygon class="i" points="96.64 81.17 92.06 90.8 92.06 74.7 96.79 74.7 96.64 81.17"/><polygon class="k" points="75.49 96.63 70.13 95.37 70.13 76.75 75.49 76.75 75.49 96.63"/><polygon class="i" points="82.91 95.53 77.55 96.32 77.55 74.55 82.91 74.55 82.91 95.53"/><polygon class="i" points="90.32 91.74 84.96 94.11 84.96 69.34 90.32 69.34 90.32 91.74"/><path class="f" d="M65.24,61.45c-4.73,3.63-7.73,9.31-7.73,15.62,0,10.89,8.83,19.72,19.72,19.72s19.72-8.84,19.72-19.72-8.83-19.72-19.72-19.72c-1.26,0-2.53,.16-3.79,.31"/><path class="i" d="M111.78,105.47c3.57,0,6.47,2.9,6.47,6.47s-2.9,6.47-6.47,6.47-6.47-2.9-6.47-6.47,2.9-6.47,6.47-6.47"/><path class="f" d="M111.78,105.47c3.57,0,6.47,2.9,6.47,6.47s-2.9,6.47-6.47,6.47-6.47-2.9-6.47-6.47,2.9-6.47,6.47-6.47Z"/><path class="f" d="M108.78,40.62c4.7,0,8.52,3.81,8.52,8.52s-3.81,8.52-8.52,8.52-8.52-3.81-8.52-8.52,3.81-8.52,8.52-8.52Z"/><path class="k" d="M36.21,41.1c3.57,0,6.47,2.9,6.47,6.47s-2.9,6.47-6.47,6.47-6.47-2.9-6.47-6.47,2.9-6.47,6.47-6.47"/><path class="f" d="M36.21,41.1c3.57,0,6.47,2.9,6.47,6.47s-2.9,6.47-6.47,6.47-6.47-2.9-6.47-6.47,2.9-6.47,6.47-6.47Z"/><path class="j" d="M75.18,25.95c2.96,0,5.36,2.4,5.36,5.36s-2.4,5.36-5.36,5.36-5.36-2.4-5.36-5.36,2.4-5.36,5.36-5.36"/><path class="j" d="M130.24,76.75c2.96,0,5.36,2.4,5.36,5.36s-2.4,5.36-5.36,5.36-5.36-2.4-5.36-5.36,2.4-5.36,5.36-5.36"/><path class="f" d="M59.72,113.52c3.57,0,6.47,2.9,6.47,6.47s-2.9,6.47-6.47,6.47-6.47-2.9-6.47-6.47,2.9-6.47,6.47-6.47Z"/><path class="f" d="M17.12,75.02c-1.26,1.74-2.05,3.94-2.05,6.31,0,6,4.73,10.73,10.73,10.73s10.73-4.73,10.73-10.73-4.73-10.73-10.73-10.73c-1.42,0-2.68,.32-3.94,.79"/><line class="f" x1="68.71" y1="96" x2="62.24" y2="113.36"/><line class="f" x1="107.21" y1="107.36" x2="91.11" y2="91.11"/><line class="f" x1="60.98" y1="65.55" x2="41.42" y2="51.35"/><line class="f" x1="36.52" y1="80.38" x2="57.51" y2="78.81"/><line class="f" x1="101.84" y1="55.46" x2="91.9" y2="64.13"/><line class="f" x1="75.18" y1="31.32" x2="77.07" y2="57.51"/><line class="f" x1="130.24" y1="82.12" x2="97.42" y2="78.65"/><line class="f" x1="25.8" y1="77.23" x2="25.8" y2="85.27"/><line class="f" x1="21.85" y1="81.33" x2="29.74" y2="81.33"/><polyline class="f" points="54.2 122.51 58.93 119.83 60.19 121.72 65.4 119.04"/><line class="g" x1="108.47" y1="53.72" x2="108.47" y2="49.15"/><line class="g" x1="108.47" y1="45.83" x2="108.47" y2="45.04"/><circle class="h" cx="76.76" cy="76.75" r="75.57"/></g></g></g></g></g></svg>