<?xml version="1.0" encoding="UTF-8"?><svg xmlns="http://www.w3.org/2000/svg" width="102.53" height="103.21" viewBox="0 0 102.53 103.21"><defs><style>.d{fill:#fff;}.e,.f,.g{fill:none;stroke:#fff;stroke-width:2.04px;}.f{stroke-linejoin:round;}.f,.g{stroke-linecap:round;}.g{stroke-miterlimit:10;}</style></defs><g id="a"/><g id="b"><g id="c"><g><ellipse class="e" cx="51.26" cy="51.6" rx="50.24" ry="50.58"/><polyline class="f" points="18.52 47.4 29.28 55.12 40.68 51.19 51.67 60.52 64.59 56.72 79.68 65.97"/><path class="d" d="M20.78,72.18l.28-.4c.19-.26,.43-.29,.73-.1,.4,.29,1.29,.93,2.51,.93s2.01-.66,2.01-1.65c0-2.56-5.53-1.98-5.53-5.59,0-1.95,1.63-3.22,3.72-3.22,1.37,0,2.44,.54,2.88,.88,.28,.19,.32,.44,.17,.74l-.22,.41c-.19,.34-.45,.31-.73,.15-.44-.26-1.14-.67-2.11-.67-1.18,0-2.07,.62-2.07,1.62,0,2.49,5.53,1.82,5.53,5.55,0,1.82-1.35,3.29-3.65,3.29-1.65,0-2.94-.77-3.45-1.2-.21-.18-.3-.41-.06-.74"/><path class="f" d="M23.99,60.05v7.8m0,3.09v4.58"/><path class="f" d="M24.15,57.79c5.67,0,10.27,4.63,10.27,10.35s-4.6,10.35-10.27,10.35-10.28-4.63-10.28-10.35,4.6-10.35,10.28-10.35Z"/><path class="g" d="M27.12,78.01h13.76m-8.95-3.02h8.95m-7.33-3h7.33m-6.32-3.01h6.32m-6.56-3h6.56m-7.77-3.01h7.77m-10.61-3h10.61"/><path class="f" d="M46.75,78.01h13.76m-13.76-3.06h13.76m-13.76-3.05h13.76m-13.76-3.06h13.76m-13.76-3.05h13.76"/><path class="g" d="M66.37,78.01h13.75m-13.75-3.19h13.75m-13.75-3.18h13.75"/><polyline class="f" points="77.66 57.58 79.68 66.14 71.06 68.15"/><polyline class="f" points="18.49 41.47 34.55 33.68 43.92 37.22 55.97 28.73 68.01 32.98 81.4 25.9"/><polyline class="f" points="73.43 23.16 81.84 26.14 78.85 34.31"/><path class="f" d="M66.03,50.92h13.76m-13.76-3.06h13.76m-13.76-3.05h13.76m-13.76-3.06h13.76m-13.76-3.05h13.76"/><path class="f" d="M47.11,50.92h13.76m-13.76-3.28h13.76m-13.76-3.27h13.76"/></g></g></g></svg>