<?xml version="1.0" encoding="UTF-8"?> <svg xmlns="http://www.w3.org/2000/svg" width="198.22" height="38.78" viewBox="0 0 198.22 38.78"><defs><style>.b2d51ce1-bb9a-421b-a805-9c2922c6ebeb{fill:#7ab83e;}</style></defs><title>Element 1</title><g id="a233c837-8189-42ab-b834-5b1a057ff8ee" data-name="Ebene 2"><g id="a67193ff-3671-4088-aa12-113310bf62ec" data-name="Ebene 1"><path class="b2d51ce1-bb9a-421b-a805-9c2922c6ebeb" d="M39.47,11.32a14.24,14.24,0,0,0-5.7,1.06,11.48,11.48,0,0,0-4.1,2.94,12.51,12.51,0,0,0-2.45,4.37,17.17,17.17,0,0,0-.81,5.37,17.34,17.34,0,0,0,.83,5.45,12.09,12.09,0,0,0,2.49,4.34,11.12,11.12,0,0,0,4.15,2.86,15.21,15.21,0,0,0,5.9,1,31.24,31.24,0,0,0,3.81-.22,17,17,0,0,0,3.92-1A20.35,20.35,0,0,0,46.05,32l-1.54.51a11.17,11.17,0,0,1-1.28.3A10.88,10.88,0,0,1,42,32.9l-1.44,0a6.28,6.28,0,0,1-4.8-1.87q-1.78-1.87-1.78-6a9.17,9.17,0,0,1,1.65-5.86,5.86,5.86,0,0,1,4.88-2.05,17.89,17.89,0,0,1,2.69.18,11.44,11.44,0,0,1,2.29.49,24.73,24.73,0,0,0,1.3-5.38c-.73-.27-1.39-.48-2-.65a8.66,8.66,0,0,0-1.32-.22,15.57,15.57,0,0,0-1.86-.2c-.64,0-1.35,0-2.11,0"></path><path class="b2d51ce1-bb9a-421b-a805-9c2922c6ebeb" d="M144,11.32a14.19,14.19,0,0,0-5.69,1.06,11.31,11.31,0,0,0-4.1,2.94,12.38,12.38,0,0,0-2.46,4.37,17.17,17.17,0,0,0-.81,5.37,17.06,17.06,0,0,0,.84,5.45,12.07,12.07,0,0,0,2.48,4.34,11.28,11.28,0,0,0,4.15,2.86,15.23,15.23,0,0,0,5.91,1,31.24,31.24,0,0,0,3.81-.22,16.89,16.89,0,0,0,3.91-1A20,20,0,0,0,150.6,32l-1.54.51a10.27,10.27,0,0,1-1.28.3,10.46,10.46,0,0,1-1.28.13l-1.43,0a6.3,6.3,0,0,1-4.81-1.87q-1.77-1.87-1.77-6a9.17,9.17,0,0,1,1.64-5.86A5.87,5.87,0,0,1,145,17.15a18.13,18.13,0,0,1,2.7.18,13.28,13.28,0,0,1,2.35.55,24.69,24.69,0,0,0,1.31-5.37c-.73-.27-1.4-.49-2-.66a9.78,9.78,0,0,0-1.39-.28,15.4,15.4,0,0,0-1.85-.2c-.65,0-1.35,0-2.12,0"></path><rect class="b2d51ce1-bb9a-421b-a805-9c2922c6ebeb" x="119.68" y="11.92" width="7.38" height="25.8"></rect><polygon class="b2d51ce1-bb9a-421b-a805-9c2922c6ebeb" points="0 3.63 0 37.73 0.01 37.73 24.25 37.73 24.25 31.38 7.39 31.38 7.39 9.99 23.08 9.99 23.08 3.65 0 3.63"></polygon><path class="b2d51ce1-bb9a-421b-a805-9c2922c6ebeb" d="M21.12,16.73h-3c-7.77,0-7.51,6.35-7.51,6.35H21.12Z"></path><path class="b2d51ce1-bb9a-421b-a805-9c2922c6ebeb" d="M61.56,11.29c-7.18,0-13,6.15-13,13.75s5.82,13.74,13,13.74,13-6.15,13-13.74A14.12,14.12,0,0,0,71,15.64l-.08,0,.06-.06a12.65,12.65,0,0,0-9.46-4.32M56.2,27.36A6.42,6.42,0,0,1,55,27.25,7.69,7.69,0,0,1,54.68,25c0-4,3.13-6.63,6.88-7.27A77.88,77.88,0,0,0,71,15.67c-.72,3.57-1.41,6.72-2,9.19-1,3.89-3.59,7.44-7.38,7.44a6.68,6.68,0,0,1-4.77-2A8.76,8.76,0,0,0,61.56,25a7.93,7.93,0,0,1-5.36,2.32"></path><path class="b2d51ce1-bb9a-421b-a805-9c2922c6ebeb" d="M185.23,11.29c-7.18,0-13,6.15-13,13.75s5.81,13.74,13,13.74,13-6.15,13-13.74-5.81-13.75-13-13.75m-5.35,16.07a6.26,6.26,0,0,1-1.19-.11,7.36,7.36,0,0,1-.33-2.22c0-4,3.13-6.63,6.87-7.27a77.88,77.88,0,0,0,9.4-2.09c-.72,3.57-1.41,6.72-2,9.19-1,3.89-3.6,7.44-7.39,7.44a6.64,6.64,0,0,1-4.76-2A8.76,8.76,0,0,0,185.23,25a7.93,7.93,0,0,1-5.35,2.32"></path><path class="b2d51ce1-bb9a-421b-a805-9c2922c6ebeb" d="M71.12,15.56a.16.16,0,0,0-.1,0l-.06.06.08,0c.09,0,.13-.06.11-.07h0"></path><path class="b2d51ce1-bb9a-421b-a805-9c2922c6ebeb" d="M112.49,3.77h-7.65a161,161,0,0,0-9,20.87A160.8,160.8,0,0,0,86.74,3.77H79.09a246.21,246.21,0,0,0-2.37,34,18.84,18.84,0,0,0,1.91,0c2.19,0,5.48,0,5.48,0s-.08-10.44,1-22.82l8.07,18.67h0a4.33,4.33,0,0,0,1.3.08h2.5a4.37,4.37,0,0,0,1.32-.08v0l8.06-18.65c1.12,12.38,1,22.82,1,22.82s3.29,0,5.48,0a18.84,18.84,0,0,0,1.91,0,243.28,243.28,0,0,0-2.37-34"></path><path class="b2d51ce1-bb9a-421b-a805-9c2922c6ebeb" d="M123.38,0a4.4,4.4,0,1,0,4.4,4.4,4.4,4.4,0,0,0-4.4-4.4"></path><path class="b2d51ce1-bb9a-421b-a805-9c2922c6ebeb" d="M166.11,11.44a25.31,25.31,0,0,0-10,2l0,.1H156V37.73h7.38V18.06a10.74,10.74,0,0,1,3.31-.48,18,18,0,0,1,4.68.66l1.16-5.84a21.44,21.44,0,0,0-6.45-1"></path></g></g></svg> 