<?xml version="1.0" encoding="utf-8"?>
<!-- Generator: Adobe Illustrator 22.1.0, SVG Export Plug-In . SVG Version: 6.00 Build 0)  -->
<svg version="1.1" id="Ebene_1" xmlns="http://www.w3.org/2000/svg" xmlns:xlink="http://www.w3.org/1999/xlink" x="0px" y="0px"
	 viewBox="0 0 169.2 89.2" style="enable-background:new 0 0 169.2 89.2;" xml:space="preserve">
<style type="text/css">
	.st0{fill:#FFFFFF;}
</style>
<g>
	<path class="st0" d="M104.8,15.9c-5.1,0-5.5-7.5,0-7.5h0.7c21.4,0,21.4,31.4,0,31.4h-0.7c-5.1,0-5.4-7.5,0-7.5h0.7
		c11.2,0,11.9-16.5,0-16.5h-0.7V15.9z"/>
	<path class="st0" d="M23.4,31.4L23.4,31.4c-1.7,1.1-3.9,0.6-5-1.1l-10-15.7c-1.1-1.7-0.6-3.9,1.1-5l0,0c1.7-1.1,3.9-0.6,5,1.1
		l10,15.7C25.6,28.1,25.1,30.4,23.4,31.4z"/>
	<path class="st0" d="M24.9,49.1L24.9,49.1c-1.8-0.9-2.5-3.1-1.7-4.8l16.4-33.6c0.9-1.8,3.1-2.5,4.8-1.7l0,0
		c1.8,0.9,2.5,3.1,1.7,4.8L29.8,47.4C28.9,49.2,26.7,50,24.9,49.1z"/>
	<path class="st0" d="M93.4,49.2L93.4,49.2c-2,0-3.6-1.6-3.6-3.6V12c0-2,1.6-3.6,3.6-3.6l0,0c2,0,3.6,1.6,3.6,3.6v33.6
		C97,47.6,95.4,49.2,93.4,49.2z"/>
	<path class="st0" d="M153.9,12.5c0-5.1,7.5-5.5,7.5,0v20.7c0,21.4-32.4,21.4-32.4,0V12.5c0-5.1,7.5-5.4,7.5,0v20.7
		c0,11.2,17.5,11.9,17.5,0V12.5H153.9z"/>
	<path class="st0" d="M84.3,43.6L67.8,10.8c-1.5-3.2-5.7-3.1-7.3,0L43.7,43.6c-1.2,2.5,0,4.6,1.9,5.6c2.1,0.4,4.3,0,5.2-2l1.7-3.6
		l0,0l11.6-23.8l11.6,23.8l1.8,3.6C79.6,51.8,86.7,48.2,84.3,43.6z"/>
</g>
<g>
	<path class="st0" d="M10,78.6l0.2-0.3c0.1-0.2,0.3-0.2,0.6-0.1c0.3,0.2,1,0.7,1.9,0.7s1.5-0.5,1.5-1.2c0-1.9-4.2-1.5-4.2-4.2
		c0-1.5,1.2-2.4,2.8-2.4c1,0,1.9,0.4,2.2,0.7c0.2,0.1,0.2,0.3,0.1,0.6l-0.2,0.3c-0.1,0.3-0.3,0.2-0.6,0.1c-0.3-0.2-0.9-0.5-1.6-0.5
		c-0.9,0-1.6,0.5-1.6,1.2c0,1.9,4.2,1.4,4.2,4.2c0,1.4-1,2.5-2.8,2.5c-1.3,0-2.2-0.6-2.6-0.9C9.9,79,9.8,78.8,10,78.6z"/>
	<path class="st0" d="M16.6,74c0-0.3,0.1-0.4,0.4-0.4h0.3c0.3,0,0.4,0.1,0.4,0.4v0.6c0,0.2,0,0.4,0,0.4l0,0c0.3-0.7,1.2-1.5,2.2-1.5
		s1.7,0.5,1.9,1.4l0,0c0.3-0.7,1.2-1.4,2.2-1.4c1.4,0,2.1,0.8,2.1,2.4v3.6c0,0.3-0.1,0.4-0.4,0.4h-0.4c-0.3,0-0.4-0.1-0.4-0.4v-3.3
		c0-0.9-0.2-1.6-1.1-1.6c-1.2,0-1.9,1.2-1.9,2.4v2.5c0,0.3-0.1,0.4-0.4,0.4h-0.4c-0.3,0-0.4-0.1-0.4-0.4v-3.3c0-0.8-0.1-1.6-1.1-1.6
		c-1.2,0-1.9,1.2-1.9,2.4v2.5c0,0.3-0.1,0.4-0.4,0.4h-0.4c-0.3,0-0.4-0.1-0.4-0.4V74H16.6z"/>
	<path class="st0" d="M31,76h0.3v-0.2c0-1-0.6-1.4-1.4-1.4c-0.6,0-1.1,0.2-1.4,0.4c-0.2,0.1-0.4,0.1-0.6-0.1l-0.1-0.2
		c-0.1-0.2-0.1-0.4,0.1-0.6c0.4-0.2,1.1-0.5,2-0.5c1.6,0,2.5,0.9,2.5,2.4v3.5c0,0.3-0.1,0.4-0.4,0.4h-0.3c-0.3,0-0.4-0.1-0.4-0.4
		v-0.4c0-0.2,0-0.4,0-0.4l0,0c0,0-0.6,1.3-2,1.3c-1.1,0-2.1-0.7-2.1-1.9C27.2,76.2,29.7,76,31,76z M29.6,79.1c1,0,1.7-1.1,1.7-2
		v-0.3H31c-0.9,0-2.5,0.1-2.5,1.3C28.4,78.6,28.8,79.1,29.6,79.1z"/>
	<path class="st0" d="M33.9,74c0-0.3,0.1-0.4,0.4-0.4h0.3c0.3,0,0.4,0.1,0.4,0.4v0.7c0,0.3,0,0.5,0,0.5l0,0c0.3-0.8,1-1.6,1.9-1.6
		c0.3,0,0.4,0.1,0.4,0.4v0.3c0,0.3-0.2,0.4-0.4,0.4c-1.2,0-1.8,1.3-1.8,2.6v2.2c0,0.3-0.1,0.4-0.4,0.4h-0.4c-0.3,0-0.4-0.1-0.4-0.4
		V74z"/>
	<path class="st0" d="M38.9,74.7h-0.4c-0.3,0-0.4-0.1-0.4-0.4v-0.2c0-0.3,0.1-0.4,0.4-0.4h0.4v-1.4c0-0.3,0.1-0.4,0.4-0.4h0.4
		c0.3,0,0.4,0.1,0.4,0.4v1.4h1.1c0.3,0,0.4,0.1,0.4,0.4v0.2c0,0.3-0.1,0.4-0.4,0.4h-1.1v2.8c0,1.2,0.7,1.4,1.2,1.4
		c0.3,0,0.4,0.1,0.4,0.4v0.3c0,0.3-0.2,0.4-0.5,0.4c-1.2,0-2.3-0.7-2.3-2.3V74.7z"/>
	<path class="st0" d="M46.8,74.7h-0.4c-0.3,0-0.4-0.1-0.4-0.4v-0.2c0-0.3,0.1-0.4,0.4-0.4h0.4v-0.3c0-2,1.6-2.3,2.3-2.3h0.1
		c0.3,0,0.4,0.1,0.4,0.4v0.2c0,0.3-0.1,0.4-0.4,0.4c-0.5,0-1.2,0.1-1.2,1.3v0.2h1.1c0.3,0,0.4,0.1,0.4,0.4v0.2
		c0,0.3-0.1,0.4-0.4,0.4H48v4.8c0,0.3-0.1,0.4-0.4,0.4h-0.4c-0.3,0-0.4-0.1-0.4-0.4V74.7z"/>
	<path class="st0" d="M50.8,72v-0.4c0-0.3,0.1-0.4,0.4-0.4h0.4c0.3,0,0.4,0.1,0.4,0.4V72c0,0.3-0.1,0.4-0.4,0.4h-0.4
		C51,72.4,50.8,72.2,50.8,72z M50.8,74c0-0.3,0.1-0.4,0.4-0.4h0.4c0.3,0,0.4,0.1,0.4,0.4v5.4c0,0.3-0.1,0.4-0.4,0.4h-0.4
		c-0.3,0-0.4-0.1-0.4-0.4V74z"/>
	<path class="st0" d="M53.8,74c0-0.3,0.1-0.4,0.4-0.4h0.3c0.3,0,0.4,0.1,0.4,0.4v0.6c0,0.2,0,0.4,0,0.4l0,0c0.2-0.5,1-1.5,2.4-1.5
		c1.5,0,2.1,0.8,2.1,2.4v3.6c0,0.3-0.1,0.4-0.4,0.4h-0.4c-0.3,0-0.4-0.1-0.4-0.4v-3.3c0-0.9-0.2-1.6-1.2-1.6c-1.2,0-2.1,1-2.1,2.3
		v2.6c0,0.3-0.1,0.4-0.4,0.4h-0.4c-0.3,0-0.4-0.1-0.4-0.4L53.8,74L53.8,74z"/>
	<path class="st0" d="M64.4,76h0.3v-0.2c0-1-0.6-1.4-1.4-1.4c-0.6,0-1.1,0.2-1.4,0.4c-0.2,0.1-0.4,0.1-0.6-0.1l-0.1-0.2
		c-0.1-0.2-0.1-0.4,0.1-0.6c0.4-0.2,1.1-0.5,2-0.5c1.6,0,2.5,0.9,2.5,2.4v3.5c0,0.3-0.1,0.4-0.4,0.4h-0.3c-0.3,0-0.4-0.1-0.4-0.4
		v-0.4c0-0.2,0-0.4,0-0.4l0,0c0,0-0.6,1.3-2,1.3c-1.1,0-2.1-0.7-2.1-1.9C60.7,76.2,63.1,76,64.4,76z M63.1,79.1c1,0,1.7-1.1,1.7-2
		v-0.3h-0.3c-0.9,0-2.5,0.1-2.5,1.3C61.9,78.6,62.3,79.1,63.1,79.1z"/>
	<path class="st0" d="M67.6,74c0-0.3,0.1-0.4,0.4-0.4h0.3c0.3,0,0.4,0.1,0.4,0.4v0.6c0,0.2,0,0.4,0,0.4l0,0c0.2-0.5,1-1.5,2.4-1.5
		c1.5,0,2.1,0.8,2.1,2.4v3.6c0,0.3-0.1,0.4-0.4,0.4h-0.4c-0.3,0-0.4-0.1-0.4-0.4v-3.3c0-0.9-0.2-1.6-1.2-1.6c-1.2,0-2.1,1-2.1,2.3
		v2.6c0,0.3-0.1,0.4-0.4,0.4h-0.4c-0.3,0-0.4-0.1-0.4-0.4L67.6,74L67.6,74z"/>
	<path class="st0" d="M77.7,73.5c1,0,1.7,0.4,2.1,0.7c0.2,0.1,0.2,0.3,0.1,0.6L79.8,75c-0.1,0.2-0.3,0.2-0.6,0.1
		c-0.3-0.2-0.7-0.5-1.4-0.5c-1.3,0-2.2,0.9-2.2,2.2c0,1.3,0.9,2.2,2.2,2.2c0.8,0,1.3-0.3,1.6-0.6c0.2-0.1,0.4-0.1,0.6,0.1l0.1,0.2
		c0.1,0.2,0.1,0.4-0.1,0.5c-0.3,0.3-1.1,0.8-2.2,0.8c-2,0-3.3-1.4-3.3-3.3C74.3,74.9,75.7,73.5,77.7,73.5z"/>
	<path class="st0" d="M84,73.5c1.7,0,2.7,1.2,2.7,3c0,0.2-0.2,0.4-0.4,0.4h-4.2c0.1,1.4,1,2.1,2.2,2.1c0.7,0,1.2-0.3,1.5-0.5
		c0.2-0.1,0.4-0.1,0.6,0.1l0.1,0.2c0.1,0.2,0.1,0.4-0.1,0.5C86,79.6,85.3,80,84.3,80c-2,0-3.3-1.4-3.3-3.3
		C80.9,74.8,82.2,73.5,84,73.5z M85.5,76.1c0-1.1-0.7-1.7-1.5-1.7c-0.9,0-1.7,0.6-1.8,1.7H85.5z"/>
	<path class="st0" d="M88.2,79c0-0.3,0.1-0.4,0.4-0.4h0.5c0.3,0,0.4,0.1,0.4,0.4v0.5c0,0.3-0.1,0.4-0.4,0.4h-0.5
		c-0.3,0-0.4-0.1-0.4-0.4V79z"/>
	<path class="st0" d="M94.1,71.6c0-0.3,0.1-0.4,0.4-0.4h2.8c1.6,0,2.7,1.1,2.7,2.7s-1.1,2.8-2.7,2.8h-2v2.8c0,0.3-0.1,0.4-0.4,0.4
		h-0.4c-0.3,0-0.4-0.1-0.4-0.4L94.1,71.6L94.1,71.6z M97.1,75.6c1,0,1.7-0.7,1.7-1.7s-0.6-1.7-1.7-1.7h-1.8v3.4
		C95.3,75.6,97.1,75.6,97.1,75.6z"/>
	<path class="st0" d="M104.1,73.5c1.7,0,2.7,1.2,2.7,3c0,0.2-0.2,0.4-0.4,0.4h-4.2c0.1,1.4,1,2.1,2.2,2.1c0.7,0,1.2-0.3,1.5-0.5
		c0.2-0.1,0.4-0.1,0.6,0.1l0.1,0.2c0.1,0.2,0.1,0.4-0.1,0.5c-0.4,0.3-1.1,0.7-2.1,0.7c-2,0-3.3-1.4-3.3-3.3
		C101,74.8,102.4,73.5,104.1,73.5z M105.6,76.1c0-1.1-0.7-1.7-1.5-1.7c-0.9,0-1.7,0.6-1.8,1.7H105.6z"/>
	<path class="st0" d="M110.9,73.5c1.9,0,3.4,1.4,3.4,3.3s-1.5,3.3-3.4,3.3s-3.4-1.4-3.4-3.3C107.6,74.9,109,73.5,110.9,73.5z
		 M110.9,79c1.2,0,2.1-0.9,2.1-2.2c0-1.3-1-2.2-2.1-2.2c-1.2,0-2.1,0.9-2.1,2.2S109.7,79,110.9,79z"/>
	<path class="st0" d="M115.7,74c0-0.3,0.1-0.4,0.4-0.4h0.3c0.3,0,0.4,0.1,0.4,0.3v0.4c0,0.2,0,0.3,0,0.3l0,0c0,0,0.5-1.2,2.1-1.2
		c1.7,0,2.7,1.3,2.7,3.3s-1.2,3.3-2.8,3.3c-1.4,0-1.9-1.1-1.9-1.1l0,0c0,0,0,0.2,0,0.5v2.5c0,0.3-0.1,0.4-0.4,0.4h-0.4
		c-0.3,0-0.4-0.1-0.4-0.4L115.7,74L115.7,74z M118.6,79c1,0,1.8-0.8,1.8-2.2c0-1.4-0.7-2.2-1.8-2.2c-0.9,0-1.8,0.7-1.8,2.2
		C116.8,77.9,117.4,79,118.6,79z"/>
	<path class="st0" d="M123,71.6c0-0.3,0.1-0.4,0.4-0.4h0.4c0.3,0,0.4,0.1,0.4,0.4v6.5c0,0.7,0.3,0.8,0.6,0.8c0.2,0,0.3,0.1,0.3,0.4
		v0.3c0,0.3-0.1,0.4-0.4,0.4c-0.7,0-1.7-0.2-1.7-1.8V71.6z"/>
	<path class="st0" d="M128.8,73.5c1.7,0,2.7,1.2,2.7,3c0,0.2-0.2,0.4-0.4,0.4h-4.2c0.1,1.4,1,2.1,2.2,2.1c0.7,0,1.2-0.3,1.5-0.5
		c0.2-0.1,0.4-0.1,0.6,0.1l0.1,0.2c0.1,0.2,0.1,0.4-0.1,0.5c-0.4,0.3-1.1,0.7-2.1,0.7c-2,0-3.3-1.4-3.3-3.3
		C125.7,74.8,127,73.5,128.8,73.5z M130.3,76.1c0-1.1-0.7-1.7-1.5-1.7c-0.9,0-1.7,0.6-1.8,1.7H130.3z"/>
	<path class="st0" d="M136.5,74.7h-0.4c-0.3,0-0.4-0.1-0.4-0.4v-0.2c0-0.3,0.1-0.4,0.4-0.4h0.4v-0.3c0-2,1.6-2.3,2.3-2.3h0.1
		c0.3,0,0.4,0.1,0.4,0.4v0.2c0,0.3-0.1,0.4-0.4,0.4c-0.5,0-1.2,0.1-1.2,1.3v0.2h1.1c0.3,0,0.4,0.1,0.4,0.4v0.2
		c0,0.3-0.1,0.4-0.4,0.4h-1.1v4.8c0,0.3-0.1,0.4-0.4,0.4h-0.4c-0.3,0-0.4-0.1-0.4-0.4V74.7z"/>
	<path class="st0" d="M140.5,72v-0.4c0-0.3,0.1-0.4,0.4-0.4h0.4c0.3,0,0.4,0.1,0.4,0.4V72c0,0.3-0.1,0.4-0.4,0.4h-0.4
		C140.7,72.4,140.5,72.2,140.5,72z M140.5,74c0-0.3,0.1-0.4,0.4-0.4h0.4c0.3,0,0.4,0.1,0.4,0.4v5.4c0,0.3-0.1,0.4-0.4,0.4h-0.4
		c-0.3,0-0.4-0.1-0.4-0.4V74z"/>
	<path class="st0" d="M143.5,74c0-0.3,0.1-0.4,0.4-0.4h0.3c0.3,0,0.4,0.1,0.4,0.4v0.7c0,0.3,0,0.5,0,0.5l0,0c0.3-0.8,1-1.6,1.9-1.6
		c0.3,0,0.4,0.1,0.4,0.4v0.3c0,0.3-0.2,0.4-0.4,0.4c-1.2,0-1.8,1.3-1.8,2.6v2.2c0,0.3-0.1,0.4-0.4,0.4h-0.4c-0.3,0-0.4-0.1-0.4-0.4
		V74z"/>
	<path class="st0" d="M147.9,78.8l0.1-0.2c0.2-0.2,0.3-0.2,0.6-0.1c0.3,0.2,0.8,0.5,1.5,0.5c0.6,0,1.1-0.3,1.1-0.8
		c0-1.2-3.2-0.8-3.2-2.9c0-1.2,1-1.8,2.3-1.8c0.9,0,1.4,0.3,1.7,0.5c0.2,0.1,0.3,0.3,0.1,0.5l-0.1,0.2c-0.1,0.2-0.3,0.2-0.5,0.1
		c-0.3-0.1-0.7-0.4-1.3-0.4s-1,0.3-1,0.8c0,1.2,3.2,0.8,3.2,2.9c0,1.1-0.9,1.8-2.2,1.8c-1,0-1.8-0.4-2.1-0.7
		C147.7,79.2,147.7,79,147.9,78.8z"/>
	<path class="st0" d="M154,74.7h-0.4c-0.3,0-0.4-0.1-0.4-0.4v-0.2c0-0.3,0.1-0.4,0.4-0.4h0.4v-1.4c0-0.3,0.1-0.4,0.4-0.4h0.4
		c0.3,0,0.4,0.1,0.4,0.4v1.4h1.1c0.3,0,0.4,0.1,0.4,0.4v0.2c0,0.3-0.1,0.4-0.4,0.4h-1.1v2.8c0,1.2,0.7,1.4,1.2,1.4
		c0.3,0,0.4,0.1,0.4,0.4v0.3c0,0.3-0.2,0.4-0.5,0.4c-1.2,0-2.3-0.7-2.3-2.3L154,74.7L154,74.7z"/>
	<path class="st0" d="M158.1,79c0-0.3,0.1-0.4,0.4-0.4h0.5c0.3,0,0.4,0.1,0.4,0.4v0.5c0,0.3-0.1,0.4-0.4,0.4h-0.5
		c-0.3,0-0.4-0.1-0.4-0.4V79z"/>
</g>
</svg>
