<?xml version="1.0" encoding="utf-8"?>
<!-- Generator: Adobe Illustrator 25.0.1, SVG Export Plug-In . SVG Version: 6.00 Build 0)  -->
<svg version="1.1" id="Ebene_1" xmlns="http://www.w3.org/2000/svg" xmlns:xlink="http://www.w3.org/1999/xlink" x="0px" y="0px"
	 viewBox="0 0 170 56" style="enable-background:new 0 0 170 56;" xml:space="preserve">
<style type="text/css">
	.st0{fill:#FFFFFF;}
</style>
<g>
	<path class="st0" d="M105.2,15c-5.1,0-5.5-7.5,0-7.5h0.7c21.4,0,21.4,31.4,0,31.4h-0.7c-5.1,0-5.4-7.5,0-7.5h0.7
		c11.2,0,11.9-16.5,0-16.5h-0.7V15z"/>
	<path class="st0" d="M23.8,30.5L23.8,30.5c-1.7,1.1-3.9,0.6-5-1.1l-10-15.7c-1.1-1.7-0.6-3.9,1.1-5l0,0c1.7-1.1,3.9-0.6,5,1.1
		l10,15.7C26,27.2,25.5,29.5,23.8,30.5z"/>
	<path class="st0" d="M25.3,48.2L25.3,48.2c-1.8-0.9-2.5-3.1-1.7-4.8L40,9.8c0.9-1.8,3.1-2.5,4.8-1.7l0,0c1.8,0.9,2.5,3.1,1.7,4.8
		L30.2,46.5C29.3,48.3,27.1,49.1,25.3,48.2z"/>
	<path class="st0" d="M93.8,48.3L93.8,48.3c-2,0-3.6-1.6-3.6-3.6V11.1c0-2,1.6-3.6,3.6-3.6l0,0c2,0,3.6,1.6,3.6,3.6v33.6
		C97.4,46.7,95.8,48.3,93.8,48.3z"/>
	<path class="st0" d="M154.3,11.6c0-5.1,7.5-5.5,7.5,0v20.7c0,21.4-32.4,21.4-32.4,0V11.6c0-5.1,7.5-5.4,7.5,0v20.7
		c0,11.2,17.5,11.9,17.5,0V11.6H154.3z"/>
	<path class="st0" d="M84.7,42.7L68.2,9.9c-1.5-3.2-5.7-3.1-7.3,0L44.1,42.7c-1.2,2.5,0,4.6,1.9,5.6c2.1,0.4,4.3,0,5.2-2l1.7-3.6
		l0,0l11.6-23.8l11.6,23.8l1.8,3.6C80,50.9,87.1,47.3,84.7,42.7z"/>
</g>
</svg>
