<?xml version="1.0" encoding="UTF-8"?><svg xmlns="http://www.w3.org/2000/svg" width="151.37" height="152.3" xmlns:xlink="http://www.w3.org/1999/xlink" viewBox="0 0 151.37 152.3"><defs><style>.e,.f,.g,.h,.i,.j{fill:none;}.k{fill:#1d1d1b;}.f,.g,.h,.i{stroke-width:2.33px;}.f,.g,.i,.j{stroke:#1d1d1b;}.f,.h,.i{stroke-linecap:round;}.f,.j{stroke-miterlimit:10;}.l{clip-path:url(#d);}.m{isolation:isolate;}.h{stroke:#1e5a64;}.h,.i{stroke-linejoin:round;}.j{stroke-width:.5px;}</style><clipPath id="d"><rect class="e" width="151.37" height="152.3"/></clipPath></defs><g id="a"/><g id="b"><g id="c"><g class="l"><g class="m"><g><ellipse class="g" cx="75.68" cy="76.15" rx="73.74" ry="74.21"/><path class="k" d="M30.97,106.27l.47-.62c.31-.31,.62-.47,1.09-.16,.62,.47,1.86,1.4,3.73,1.4s2.95-.93,2.95-2.48c0-3.73-8.07-2.95-8.07-8.23,0-2.79,2.33-4.66,5.43-4.66,2.02,0,3.57,.78,4.19,1.24,.46,.31,.46,.62,.31,1.09l-.47,.78c-.31,.47-.62,.47-1.09,.16-.62-.31-1.71-.93-3.1-.93-1.71,0-3.11,.93-3.11,2.33,0,3.73,8.07,2.64,8.07,8.07,0,2.64-2.02,4.81-5.43,4.81-2.48,0-4.35-1.09-5.12-1.71-.15-.16-.31-.47,.16-1.09"/><path class="j" d="M30.97,106.27l.47-.62c.31-.31,.62-.47,1.09-.16,.62,.47,1.86,1.4,3.73,1.4s2.95-.93,2.95-2.48c0-3.73-8.07-2.95-8.07-8.23,0-2.79,2.33-4.66,5.43-4.66,2.02,0,3.57,.78,4.19,1.24,.46,.31,.46,.62,.31,1.09l-.47,.78c-.31,.47-.62,.47-1.09,.16-.62-.31-1.71-.93-3.1-.93-1.71,0-3.11,.93-3.11,2.33,0,3.73,8.07,2.64,8.07,8.07,0,2.64-2.02,4.81-5.43,4.81-2.48,0-4.35-1.09-5.12-1.71-.15-.16-.31-.47,.16-1.09Z"/><path class="i" d="M35.63,104.56v6.68m0-22.67v11.49"/><path class="i" d="M35.94,85.16c8.32,0,15.06,6.81,15.06,15.21s-6.74,15.21-15.06,15.21-15.06-6.81-15.06-15.21,6.74-15.21,15.06-15.21Z"/><path class="f" d="M44.79,88.42h15.52m-11.33,4.35h11.33m-9.47,4.5h9.62m-9.32,4.35h9.32m-10.71,4.5h10.71m-13.2,4.35h13.2m-20.18,4.5h20.18"/><path class="i" d="M69.01,96.95h20.18m-20.18,4.5h20.18m-20.18,4.5h20.18m-20.18,4.5h20.18m-20.18,4.5h20.18"/><path class="f" d="M97.89,105.49h20.18m-20.18,4.66h20.18m-20.18,4.81h20.18"/><polyline class="i" points="27.56 68.39 43.39 79.72 60.16 73.98 76.31 87.64 95.25 82.05 117.45 95.71"/><polyline class="i" points="114.34 83.29 117.45 95.87 104.72 98.82"/><polyline class="h" points="27.56 59.69 51.16 48.36 64.97 53.48 82.52 41.06 100.21 47.27 119.93 36.87"/><polyline class="h" points="108.13 32.37 120.55 36.72 116.2 48.83"/><path class="h" d="M97.42,55.66h20.18m-20.18,4.5h20.18m-20.18,4.5h20.18m-20.18,4.5h20.18m-20.18,4.5h20.18"/><path class="h" d="M69.63,64.04h20.18m-20.18,4.81h20.18m-20.18,4.81h20.18"/></g></g></g></g></g></svg>