<?xml version="1.0" encoding="UTF-8"?><svg xmlns="http://www.w3.org/2000/svg" width="152.2" height="152.46" xmlns:xlink="http://www.w3.org/1999/xlink" viewBox="0 0 152.2 152.46"><defs><style>.e,.f,.g{fill:none;}.h{fill:#1e5a64;}.i{fill:#45b4b4;}.f{stroke-miterlimit:10;stroke-width:2.64px;}.f,.g{stroke:#1d1d1b;}.g{stroke-linecap:round;stroke-linejoin:round;stroke-width:2.37px;}.j{clip-path:url(#d);}.k{isolation:isolate;}</style><clipPath id="d"><rect class="e" x="0" y="0" width="152.2" height="152.46"/></clipPath></defs><g id="a"/><g id="b"><g id="c"><g class="j"><g class="k"><g><line class="g" x1="68.36" y1="77.51" x2="55.69" y2="68.88"/><line class="g" x1="63.08" y1="95.28" x2="69.76" y2="87.71"/><line class="g" x1="95.1" y1="81.9" x2="82.61" y2="81.9"/><path class="g" d="M33.34,44.96H116.39c4.95,0,8.97,4.02,8.97,8.97v55.78c0,4.95-4.02,8.97-8.97,8.97H33.34c-4.95,0-8.97-4.02-8.97-8.97V53.93c0-4.95,4.02-8.97,8.97-8.97Z"/><polyline class="g" points="107.95 111.29 34.05 111.29 34.05 52.52 115.69 52.52 115.69 111.29"/><line class="g" x1="87.18" y1="57.45" x2="78.39" y2="74.87"/><line class="g" x1="101.26" y1="29.47" x2="96.33" y2="38.97"/><path class="h" d="M82.61,81.9c0-4.22-3.52-7.74-7.74-7.74s-7.74,3.52-7.74,7.74,3.52,7.74,7.74,7.74,7.74-3.52,7.74-7.74"/><path class="g" d="M82.61,81.9c0-4.22-3.52-7.74-7.74-7.74s-7.74,3.52-7.74,7.74,3.52,7.74,7.74,7.74,7.74-3.52,7.74-7.74Z"/><path class="g" d="M56.39,66.25c0-2.46-2.11-4.57-4.58-4.57s-4.57,2.11-4.57,4.57,2.11,4.58,4.57,4.58,4.58-1.94,4.58-4.58Z"/><path class="g" d="M104.07,81.9c0-2.46-2.11-4.57-4.58-4.57s-4.57,2.11-4.57,4.57,2.11,4.58,4.57,4.58,4.58-2.11,4.58-4.58Z"/><path class="g" d="M64.66,98.62c0-2.46-2.11-4.57-4.58-4.57s-4.57,2.11-4.57,4.57,2.11,4.58,4.57,4.58,4.58-2.11,4.58-4.58Z"/><path class="i" d="M107.42,23.67c-.88-2.29-3.52-3.52-5.98-2.46-2.29,.88-3.52,3.52-2.46,5.98,1.06,2.46,3.52,3.52,5.98,2.46,2.29-.88,3.34-3.52,2.46-5.98"/><path class="g" d="M107.42,23.67c-.88-2.29-3.52-3.52-5.98-2.46-2.29,.88-3.52,3.52-2.46,5.98,1.06,2.46,3.52,3.52,5.98,2.46,2.29-.88,3.34-3.52,2.46-5.98Z"/><line class="g" x1="53.05" y1="70.64" x2="59.03" y2="94.22"/><circle class="f" cx="76.1" cy="76.1" r="74.78" transform="translate(-7.13 7.87) rotate(-5.65)"/></g></g></g></g></g></svg>