<?xml version="1.0" encoding="UTF-8"?>
<svg xmlns="http://www.w3.org/2000/svg" id="Ebene_2" data-name="Ebene 2" width="152.66" height="152.66" viewBox="0 0 152.66 152.66">
  <defs>
    <style>
      .cls-1, .cls-2 {
        fill: none;
      }

      .cls-3 {
        fill: #fff;
      }

      .cls-2 {
        stroke: #fff;
        stroke-linecap: round;
        stroke-linejoin: round;
        stroke-width: 2.66px;
      }
    </style>
  </defs>
  <g id="Ebene_2-2" data-name="Ebene 2">
    <g id="Ebene_1-2" data-name="Ebene 1-2">
      <g id="b">
        <g id="c">
          <g>
            <circle class="cls-2" cx="76.33" cy="76.33" r="75"></circle>
            <line class="cls-2" x1="93.33" y1="3.33" x2="93.33" y2="149.33"></line>
            <polygon class="cls-2" points="21.03 49.13 21.03 108.33 80.53 108.33 80.53 49.13 50.73 33.83 21.03 49.13"></polygon>
            <path class="cls-3" d="m48.03,78.13h0c-1.2.7-2.7.4-3.4-.7l-6.8-11c-.7-1.2-.4-2.8.7-3.6,1.2-.7,2.7-.4,3.4.7l6.8,11c.8,1.3.4,2.9-.7,3.6"></path>
            <path class="cls-3" d="m49.13,90.53h0c-1.2-.5-1.8-2.1-1.1-3.4l11.2-23.4c.5-1.2,2.1-1.8,3.4-1.2,1.2.5,1.8,2.1,1.1,3.4l-11.2,23.4c-.7,1.4-2.1,1.9-3.4,1.2"></path>
            <path class="cls-1" d="m110.93,44.33c4.5,0,8.2,3.7,8.2,8.2s-3.7,8.2-8.2,8.2-8.2-3.7-8.2-8.2,3.7-8.2,8.2-8.2"></path>
            <path class="cls-2" d="m110.93,44.33c4.5,0,8.2,3.7,8.2,8.2s-3.7,8.2-8.2,8.2-8.2-3.7-8.2-8.2,3.7-8.2,8.2-8.2Z"></path>
            <polyline class="cls-2" points="107.73 50.73 111.83 54.83 123.23 44.13"></polyline>
            <path class="cls-1" d="m110.93,66.53c4.5,0,8.2,3.7,8.2,8.2s-3.7,8.2-8.2,8.2-8.2-3.7-8.2-8.2,3.7-8.2,8.2-8.2"></path>
            <path class="cls-2" d="m110.93,66.53c4.5,0,8.2,3.7,8.2,8.2s-3.7,8.2-8.2,8.2-8.2-3.7-8.2-8.2,3.7-8.2,8.2-8.2Z"></path>
            <path class="cls-3" d="m106.33,35.23c.7.5,1.9,1.2,3.6,1.4v1.2c0,.5.2.7.9.7h.2c.5,0,.9-.3.9-.9v-1.1c2.7-.3,4.1-2.1,4.1-4.4,0-4.8-7.1-4.3-7.1-6.9,0-1.1,1.1-1.8,2.3-1.8,1.1,0,1.9.5,2.5.7.5.4.9.2,1.2-.4l.3-.5c.2-.5.2-.9-.2-1.2-.5-.4-1.6-.9-3-1.1v-1.2c0-.5-.4-.7-.9-.7h-.2c-.5,0-.9.4-.9.9v1.1c-2.3.4-4.1,2.1-4.1,4.3,0,4.6,7.1,4.3,7.1,6.9,0,1.2-1.1,1.8-2.1,1.8-1.2,0-2.3-.5-3-1.1-.5-.3-.9-.3-1.2.2l-.5.7c-.2.7-.2,1.3.1,1.4"></path>
            <polyline class="cls-2" points="107.73 72.93 111.83 77.03 123.23 66.33"></polyline>
            <path class="cls-1" d="m110.93,89.63c4.5,0,8.2,3.7,8.2,8.2s-3.7,8.2-8.2,8.2-8.2-3.7-8.2-8.2,3.7-8.2,8.2-8.2"></path>
            <path class="cls-2" d="m110.93,89.63c4.5,0,8.2,3.7,8.2,8.2s-3.7,8.2-8.2,8.2-8.2-3.7-8.2-8.2,3.7-8.2,8.2-8.2Z"></path>
            <polyline class="cls-2" points="107.73 96.03 111.83 100.13 123.23 89.43"></polyline>
            <path class="cls-1" d="m110.93,112.53c4.5,0,8.2,3.7,8.2,8.2s-3.7,8.2-8.2,8.2-8.2-3.7-8.2-8.2,3.7-8.2,8.2-8.2"></path>
            <path class="cls-2" d="m110.93,112.53c4.5,0,8.2,3.7,8.2,8.2s-3.7,8.2-8.2,8.2-8.2-3.7-8.2-8.2,3.7-8.2,8.2-8.2Z"></path>
            <polyline class="cls-2" points="107.73 119.13 111.83 123.03 123.23 112.43"></polyline>
          </g>
        </g>
      </g>
    </g>
  </g>
</svg>
