<?xml version="1.0" encoding="UTF-8"?><svg xmlns="http://www.w3.org/2000/svg" width="151.78" height="155.56" xmlns:xlink="http://www.w3.org/1999/xlink" viewBox="0 0 151.78 155.56"><defs><style>.e,.f,.g,.h,.i{fill:none;}.j{fill:#1e5a64;}.k{fill:#45b4b4;}.f,.g,.h,.i{stroke:#1d1d1b;stroke-linecap:round;}.f,.g,.i{stroke-linejoin:round;}.f,.h{stroke-width:2.66px;}.g{stroke-width:2.38px;}.h{stroke-miterlimit:10;}.i{stroke-width:2.39px;}.l{clip-path:url(#d);}.m{isolation:isolate;}</style><clipPath id="d"><rect class="e" x="0" width="151.78" height="155.56"/></clipPath></defs><g id="a"/><g id="b"><g id="c"><g class="l"><g class="m"><g><path class="k" d="M65.58,73.2c0,3.65-3.33,6.66-3.33,6.66,0,0-3.33-3.01-3.33-6.66s3.33-6.66,3.33-6.66c0,0,3.33,3.01,3.33,6.66"/><path class="f" d="M65.58,73.2c0,3.65-3.33,6.66-3.33,6.66,0,0-3.33-3.01-3.33-6.66s3.33-6.66,3.33-6.66c0,0,3.33,3.01,3.33,6.66Z"/><line class="f" x1="64.15" y1="104.28" x2="64.15" y2="88.74"/><path class="f" d="M64.15,88.74c0-10.78,10.78-9.2,10.78-9.2,0,0-.79,6.03-5.39,7.77"/><path class="f" d="M60.35,88.1c-.48-9.99-10.79-8.41-10.79-8.41,0,0,1.11,8.09,7.93,8.41h2.86Z"/><path class="j" d="M89.06,89.06c0,3.65-3.33,6.66-3.33,6.66,0,0-3.33-3.01-3.33-6.66s3.33-6.66,3.33-6.66c0,0,3.33,3.01,3.33,6.66"/><path class="f" d="M89.06,89.06c0,3.65-3.33,6.66-3.33,6.66,0,0-3.33-3.01-3.33-6.66s3.33-6.66,3.33-6.66c0,0,3.33,3.01,3.33,6.66Z"/><line class="i" x1="87.63" y1="113.96" x2="87.63" y2="104.76"/><path class="f" d="M87.63,104.76c0-10.78,10.78-9.2,10.78-9.2,0,0-.79,6.03-5.39,7.77"/><path class="k" d="M83.82,103.96c-.48-9.99-10.79-8.41-10.79-8.41,0,0,1.11,8.09,7.93,8.41h2.86Z"/><path class="i" d="M83.82,103.96c-.48-9.99-10.79-8.41-10.79-8.41,0,0,1.11,8.09,7.93,8.41h2.86Z"/><line class="f" x1="53.69" y1="57.65" x2="56.38" y2="62.89"/><line class="f" x1="45.92" y1="57.65" x2="51.15" y2="67.8"/><line class="f" x1="37.99" y1="57.65" x2="45.92" y2="72.24"/><path class="f" d="M56.22,40.21c-2.7-2.7-6.5-4.28-10.63-4.28-4.76,0-9.04,2.22-11.9,5.71-1.43-1.74-3.65-2.85-6.03-2.85-4.28,0-7.77,3.49-7.77,7.77s3.49,7.77,7.77,7.77H60.51c2.85,0,5.08-2.22,5.08-5.08s-2.22-5.07-5.08-5.07c-.48,0-.95,0-1.27,.16"/><path class="f" d="M33.86,41.63c1.11,1.43,1.74,3.01,1.74,4.92"/><path class="i" d="M57.33,45.44c.95-.79,2.06-1.27,3.33-1.27"/><line class="f" x1="103.96" y1="49.88" x2="103.96" y2="40.68"/><line class="i" x1="103.96" y1="89.37" x2="103.96" y2="95.4"/><line class="f" x1="89.85" y1="55.59" x2="83.5" y2="49.25"/><line class="i" x1="117.92" y1="83.66" x2="124.27" y2="90.01"/><line class="f" x1="123.63" y1="69.71" x2="132.83" y2="69.71"/><line class="f" x1="117.92" y1="55.59" x2="124.27" y2="49.25"/><path class="f" d="M99.36,84.62c1.43,.48,2.85,.64,4.44,.64,8.56,0,15.7-6.98,15.7-15.7s-6.98-15.7-15.7-15.7c-6.19,0-11.42,3.49-13.96,8.72"/><polyline class="f" points="29.42 94.29 46.87 104.28 64 104.28 79.06 114.12 94.77 114.43 108.09 118.87"/><polyline class="h" points="105.87 111.42 109.2 120.14 100.63 123.31"/><circle class="g" cx="75.89" cy="75.89" r="74.7" transform="translate(-5.19 146.21) rotate(-85.93)"/></g></g></g></g></g></svg>