<?xml version="1.0" encoding="UTF-8"?><svg xmlns="http://www.w3.org/2000/svg" width="156.17" height="155.44" xmlns:xlink="http://www.w3.org/1999/xlink" viewBox="0 0 156.17 155.44"><defs><style>.e,.f,.g{fill:none;}.h{fill:#231f20;}.i{fill:#45b4b4;}.f{stroke:#231f20;stroke-linecap:round;stroke-linejoin:round;stroke-width:2.66px;}.j{clip-path:url(#d);}.g{stroke:#1d1d1b;stroke-miterlimit:10;stroke-width:.44px;}.k{isolation:isolate;}</style><clipPath id="d"><rect class="e" width="156.17" height="155.44"/></clipPath></defs><g id="a"/><g id="b"><g id="c"><g class="j"><g class="k"><g><circle class="f" cx="78.08" cy="78.08" r="74.97"/><line class="f" x1="95.14" y1="5.06" x2="95.14" y2="151.1"/><polygon class="f" points="22.83 50.9 22.83 110.06 82.35 110.06 82.35 50.9 52.5 35.62 22.83 50.9"/><path class="h" d="M49.84,79.86h0c-1.24,.71-2.67,.36-3.38-.71l-6.75-11.01c-.71-1.24-.36-2.84,.71-3.55,1.24-.71,2.66-.36,3.38,.71l6.75,11.02c.71,1.24,.35,2.84-.71,3.55"/><path class="h" d="M50.9,92.3h0c-1.24-.53-1.78-2.13-1.07-3.38l11.19-23.45c.53-1.24,2.13-1.78,3.38-1.24,1.24,.53,1.78,2.13,1.07,3.38l-11.19,23.45c-.71,1.42-2.13,1.95-3.38,1.24"/><path class="i" d="M112.73,46.1c4.51,0,8.17,3.66,8.17,8.17s-3.66,8.17-8.17,8.17-8.17-3.66-8.17-8.17,3.66-8.17,8.17-8.17"/><path class="f" d="M112.73,46.1c4.51,0,8.17,3.66,8.17,8.17s-3.66,8.17-8.17,8.17-8.17-3.66-8.17-8.17,3.66-8.17,8.17-8.17Z"/><polyline class="f" points="109.53 52.5 113.62 56.59 124.99 45.93"/><path class="i" d="M112.73,68.31c4.51,0,8.17,3.66,8.17,8.17s-3.66,8.17-8.17,8.17-8.17-3.66-8.17-8.17,3.66-8.17,8.17-8.17"/><path class="f" d="M112.73,68.31c4.51,0,8.17,3.66,8.17,8.17s-3.66,8.17-8.17,8.17-8.17-3.66-8.17-8.17,3.66-8.17,8.17-8.17Z"/><path class="h" d="M108.11,37.04c.71,.53,1.95,1.24,3.55,1.42v1.24c0,.53,.18,.71,.89,.71h.18c.53,0,.89-.35,.89-.89v-1.07c2.66-.35,4.09-2.13,4.09-4.44,0-4.8-7.11-4.26-7.11-6.93,0-1.07,1.07-1.78,2.31-1.78,1.07,0,1.95,.53,2.49,.71,.53,.35,.89,.18,1.24-.35l.36-.71c.18-.53,.18-.89-.18-1.24-.53-.35-1.6-.89-3.02-1.07v-1.24c0-.53-.36-.71-.89-.71h-.18c-.53,0-.89,.35-.89,.89v1.07c-2.31,.36-4.09,2.13-4.09,4.26,0,4.62,7.11,4.26,7.11,6.93,0,1.24-1.07,1.78-2.13,1.78-1.24,0-2.31-.53-3.02-1.07-.53-.35-.89-.35-1.24,.18l-.53,.71c-.18,.89-.18,1.42,.18,1.6"/><path class="g" d="M108.11,37.04c.71,.53,1.95,1.24,3.55,1.42v1.24c0,.53,.18,.71,.89,.71h.18c.53,0,.89-.35,.89-.89v-1.07c2.66-.35,4.09-2.13,4.09-4.44,0-4.8-7.11-4.26-7.11-6.93,0-1.07,1.07-1.78,2.31-1.78,1.07,0,1.95,.53,2.49,.71,.53,.35,.89,.18,1.24-.35l.36-.71c.18-.53,.18-.89-.18-1.24-.53-.35-1.6-.89-3.02-1.07v-1.24c0-.53-.36-.71-.89-.71h-.18c-.53,0-.89,.35-.89,.89v1.07c-2.31,.36-4.09,2.13-4.09,4.26,0,4.62,7.11,4.26,7.11,6.93,0,1.24-1.07,1.78-2.13,1.78-1.24,0-2.31-.53-3.02-1.07-.53-.35-.89-.35-1.24,.18l-.53,.71c-.18,.89-.18,1.42,.18,1.6"/><polyline class="f" points="109.53 74.71 113.62 78.79 124.99 68.13"/><path class="i" d="M112.73,91.41c4.51,0,8.17,3.66,8.17,8.17s-3.66,8.17-8.17,8.17-8.17-3.66-8.17-8.17,3.66-8.17,8.17-8.17"/><path class="f" d="M112.73,91.41c4.51,0,8.17,3.66,8.17,8.17s-3.66,8.17-8.17,8.17-8.17-3.66-8.17-8.17,3.66-8.17,8.17-8.17Z"/><polyline class="f" points="109.53 97.8 113.62 101.89 124.99 91.23"/><path class="i" d="M112.73,114.33c4.51,0,8.17,3.66,8.17,8.17s-3.66,8.17-8.17,8.17-8.17-3.66-8.17-8.17,3.66-8.17,8.17-8.17"/><path class="f" d="M112.73,114.33c4.51,0,8.17,3.66,8.17,8.17s-3.66,8.17-8.17,8.17-8.17-3.66-8.17-8.17,3.66-8.17,8.17-8.17Z"/><polyline class="f" points="109.53 120.9 113.62 124.81 124.99 114.15"/></g></g></g></g></g></svg>