<?xml version="1.0" encoding="UTF-8"?><svg xmlns="http://www.w3.org/2000/svg" width="499.3" height="313.43" viewBox="0 0 499.3 313.43"><defs><style>.d{fill:#fff;}.e{fill:#e5e5e5;}.f{fill:#dcdce1;}.g{fill:#1e5a64;}.h{fill:#41c8b4;}</style></defs><g id="a"/><g id="b"><g id="c"><path class="d" d="M0,12.24H0V307.05c0,3.53,3.81,6.39,8.51,6.39H490.79c4.7,0,8.51-2.86,8.51-6.39V25.55H2.8C1.25,25.55,0,24.61,0,23.45V12.24Z"/><path class="e" d="M16.31,0H482.99c9.01,0,16.31,5.48,16.31,12.24v13.3H2.8c-1.54,0-2.8-.94-2.8-2.1V12.24C0,5.48,7.3,0,16.31,0"/><path class="f" d="M24.21,6.76c-3.31,0-5.99,2.68-5.99,5.99s2.68,5.99,5.99,5.99,5.99-2.68,5.99-5.99-2.68-5.99-5.99-5.99"/><path class="f" d="M40.45,6.76c-3.31,0-5.99,2.68-5.99,5.99s2.68,5.99,5.99,5.99,5.99-2.68,5.99-5.99-2.68-5.99-5.99-5.99"/><path class="f" d="M56.7,6.76c-3.31,0-5.99,2.68-5.99,5.99s2.68,5.99,5.99,5.99,5.99-2.68,5.99-5.99-2.68-5.99-5.99-5.99"/><path class="g" d="M99.81,219.52c1.68,3.16,3.54,6.26,5.57,9.3,.41,.61,1.24,.78,1.86,.37,.61-.41,.78-1.24,.37-1.85-1.98-2.96-3.79-5.98-5.43-9.06-.35-.65-1.16-.9-1.81-.55-.65,.35-.9,1.16-.56,1.81"/><path class="g" d="M111.82,237.54c2.24,2.75,4.63,5.45,7.18,8.09,.51,.53,1.36,.55,1.9,.04,.53-.51,.55-1.36,.04-1.89-2.5-2.59-4.84-5.23-7.03-7.92-.47-.57-1.31-.66-1.89-.2-.57,.47-.66,1.31-.2,1.88"/><path class="g" d="M108.07,106.95c1.88-2.94,3.91-5.83,6.09-8.65,.45-.59,.34-1.42-.24-1.87-.59-.45-1.43-.34-1.88,.24-2.23,2.89-4.31,5.84-6.23,8.85-.4,.62-.22,1.45,.41,1.84s1.45,.21,1.85-.41"/><path class="g" d="M91.66,199.32c.99,3.48,2.16,6.9,3.51,10.25,.28,.69,1.06,1.02,1.74,.74,.69-.27,1.02-1.05,.74-1.74-1.32-3.27-2.45-6.59-3.42-9.99-.2-.71-.94-1.12-1.65-.92s-1.13,.94-.92,1.65"/><path class="g" d="M87.65,167.19c-.01,.74,.58,1.35,1.32,1.36,.74,.01,1.35-.58,1.36-1.31,.06-3.58,.26-7.1,.6-10.57,.07-.73-.46-1.39-1.2-1.46-.74-.07-1.39,.46-1.47,1.2-.35,3.54-.56,7.14-.62,10.79"/><path class="g" d="M102.14,114.44c-.66-.34-1.47-.08-1.8,.58-1.66,3.22-3.15,6.51-4.48,9.86-.27,.69,.06,1.46,.75,1.74,.69,.27,1.47-.06,1.74-.75,1.3-3.27,2.76-6.48,4.38-9.62,.34-.66,.08-1.46-.58-1.8"/><path class="g" d="M119.01,90.35c.55,.5,1.4,.46,1.89-.09,2.34-2.58,4.82-5.1,7.43-7.57,.54-.51,.56-1.35,.05-1.89-.51-.54-1.36-.56-1.9-.05-2.66,2.52-5.18,5.09-7.57,7.71-.5,.55-.46,1.39,.09,1.89"/><path class="g" d="M89.27,188.83c.13,.73,.82,1.21,1.55,1.09,.73-.13,1.22-.82,1.09-1.55-.6-3.43-1.03-6.93-1.29-10.48-.05-.74-.7-1.29-1.43-1.23-.74,.05-1.29,.69-1.24,1.43,.27,3.64,.71,7.22,1.33,10.74"/><path class="g" d="M89.82,145.67c-.14,.73,.34,1.43,1.07,1.56,.73,.14,1.43-.34,1.57-1.06,.67-3.49,1.49-6.91,2.46-10.28,.2-.71-.2-1.45-.92-1.66-.71-.21-1.45,.2-1.66,.91-1,3.45-1.84,6.95-2.52,10.52"/><path class="g" d="M128.85,241.54l5.49,14.45c-1.98-1.6-3.89-3.22-5.74-4.86-.55-.49-1.4-.44-1.89,.11-.49,.55-.45,1.4,.11,1.89,1.88,1.67,3.83,3.32,5.85,4.95l-15.2-1.27c-.74-.06-1.39,.48-1.45,1.22h0c-.06,.74,.49,1.38,1.22,1.44l19.43,1.62c.68,.06,1.27-.4,1.41-1.04,.27-.35,.36-.83,.19-1.28l-6.91-18.18c-.26-.69-1.04-1.04-1.73-.78h0c-.69,.26-1.04,1.03-.78,1.72"/><path class="g" d="M407.49,116.59c-1.68-3.16-3.54-6.26-5.57-9.29-.41-.61-1.24-.78-1.86-.37-.62,.41-.78,1.24-.37,1.85,1.98,2.96,3.79,5.98,5.43,9.06,.35,.65,1.16,.9,1.81,.55,.65-.35,.9-1.16,.56-1.81"/><path class="g" d="M395.48,98.57c-2.24-2.75-4.63-5.45-7.18-8.09-.51-.53-1.36-.55-1.9-.04-.53,.51-.55,1.36-.04,1.89,2.5,2.59,4.84,5.23,7.03,7.93,.47,.57,1.31,.66,1.89,.2,.57-.47,.66-1.31,.2-1.88"/><path class="g" d="M399.23,229.16c-1.88,2.94-3.91,5.83-6.09,8.66-.45,.59-.34,1.42,.24,1.87,.59,.45,1.43,.34,1.88-.24,2.23-2.89,4.31-5.84,6.23-8.85,.4-.62,.22-1.45-.41-1.84s-1.45-.21-1.85,.41"/><path class="g" d="M415.64,136.79c-.99-3.48-2.16-6.9-3.51-10.25-.28-.69-1.06-1.02-1.74-.74-.69,.27-1.02,1.05-.74,1.74,1.32,3.27,2.45,6.59,3.42,9.99,.2,.71,.94,1.12,1.65,.92s1.13-.94,.93-1.65"/><path class="g" d="M419.65,168.92c.01-.74-.58-1.35-1.32-1.36-.74-.01-1.35,.58-1.36,1.31-.06,3.58-.26,7.1-.6,10.57-.07,.73,.46,1.39,1.2,1.46,.74,.07,1.39-.46,1.47-1.2,.35-3.54,.56-7.14,.62-10.79"/><path class="g" d="M405.16,221.67c.66,.34,1.47,.08,1.8-.58,1.66-3.22,3.15-6.51,4.48-9.86,.27-.69-.06-1.46-.75-1.74-.69-.27-1.47,.06-1.74,.75-1.3,3.27-2.76,6.48-4.38,9.62-.34,.66-.08,1.46,.58,1.8"/><path class="g" d="M388.29,245.76c-.55-.5-1.4-.45-1.89,.09-2.34,2.58-4.82,5.1-7.43,7.57-.54,.51-.56,1.35-.05,1.89,.51,.54,1.36,.56,1.9,.05,2.66-2.52,5.18-5.09,7.57-7.71,.5-.55,.46-1.39-.09-1.89"/><path class="g" d="M418.03,147.28c-.13-.73-.82-1.21-1.55-1.09-.73,.13-1.22,.82-1.09,1.54,.6,3.43,1.03,6.93,1.29,10.48,.05,.74,.7,1.29,1.43,1.23,.74-.05,1.29-.69,1.24-1.43-.27-3.64-.71-7.22-1.32-10.74"/><path class="g" d="M417.48,190.44c.14-.72-.34-1.42-1.07-1.56-.73-.14-1.43,.34-1.57,1.06-.67,3.49-1.48,6.91-2.46,10.28-.2,.71,.2,1.45,.92,1.66,.71,.21,1.45-.2,1.66-.91,1-3.44,1.84-6.95,2.52-10.52"/><path class="g" d="M378.45,94.57l-5.49-14.45c1.98,1.6,3.89,3.22,5.74,4.86,.55,.49,1.4,.44,1.89-.11,.49-.55,.45-1.4-.11-1.89-1.88-1.67-3.83-3.32-5.85-4.95l15.2,1.27c.74,.06,1.39-.48,1.45-1.22h0c.06-.74-.49-1.38-1.22-1.44l-19.43-1.62c-.68-.06-1.27,.4-1.41,1.04-.27,.35-.36,.83-.19,1.28l6.91,18.18c.26,.69,1.04,1.04,1.73,.78h0c.69-.26,1.04-1.03,.78-1.72"/><path class="h" d="M230.48,57.33h-6.97c-2.11,0-3.91,1.51-4.27,3.59l-1.5,8.7-1.93,2.11c-4.07,1.1-7.93,2.8-11.49,5.05l-8.81-6.01c-.74-.51-1.59-.75-2.44-.75-1.12,0-2.23,.43-3.06,1.27l-4.93,4.93c-1.49,1.49-1.69,3.83-.47,5.56l5.29,7.49c.49,.69,.53,1.6,.11,2.33-2.18,3.73-3.77,7.76-4.73,11.96l-10.47,1.97c-2.04,.39-3.53,2.17-3.53,4.25v6.97c0,2.11,1.51,3.91,3.59,4.26l9.02,1.55c.83,.14,1.51,.76,1.72,1.56,.98,3.73,2.47,7.32,4.43,10.66,.42,.71,.38,1.61-.09,2.3l-5.23,7.66c-1.17,1.72-.96,4.03,.51,5.5l4.93,4.93c.84,.84,1.94,1.27,3.06,1.27,.87,0,1.74-.26,2.5-.79l7.49-5.29c.37-.26,.81-.4,1.25-.4,.37,0,.75,.1,1.08,.29,3.74,2.19,7.76,3.78,11.95,4.73l1.97,10.48c.39,2.04,2.17,3.53,4.25,3.53h6.97c2.11,0,3.91-1.51,4.26-3.59l1.55-9.02c.14-.83,.76-1.51,1.56-1.72,3.73-.98,7.31-2.47,10.65-4.43,.33-.19,.7-.29,1.08-.29,.43,0,.86,.13,1.22,.38l7.66,5.23c.74,.51,1.59,.75,2.44,.75,1.12,0,2.23-.43,3.06-1.27l4.93-4.93c1.49-1.49,1.69-3.83,.47-5.56l-5.29-7.49c-.49-.69-.53-1.6-.11-2.33,1.91-3.26,3.36-6.73,4.33-10.35l2.08-1.93,8.8-1.66c2.04-.39,3.53-2.17,3.53-4.25v-6.97c0-2.11-1.51-3.91-3.59-4.26l-8.71-1.5-2.11-1.93c-.98-3.62-2.44-7.1-4.35-10.34-.42-.71-.38-1.61,.09-2.3l5.23-7.66c1.17-1.72,.96-4.03-.51-5.5l-4.93-4.93c-.84-.84-1.94-1.27-3.06-1.27-.87,0-1.74,.26-2.5,.79l-7.48,5.28c-.37,.26-.81,.4-1.25,.4-.37,0-.75-.1-1.08-.29-3.24-1.9-6.72-3.35-10.36-4.33l-1.92-2.07-1.66-8.8c-.39-2.04-2.17-3.52-4.25-3.52m-26.18,22.07l.63-.42c3.61-2.37,7.57-4.12,11.75-5.22l.31-.08,2.79-3.05,1.61-9.33c.18-1.04,1.07-1.79,2.13-1.79h6.97c1.04,0,1.93,.74,2.12,1.76l1.78,9.41,2.78,2.99,.3,.08c3.55,.93,6.95,2.33,10.12,4.18,.67,.39,1.42,.59,2.17,.59,.88,0,1.75-.27,2.5-.79l7.48-5.28c.38-.27,.81-.4,1.25-.4,.56,0,1.11,.22,1.53,.63l4.93,4.93c.73,.73,.84,1.89,.26,2.75l-5.23,7.66c-.94,1.38-1,3.19-.16,4.62,1.86,3.16,3.27,6.56,4.2,10.1l.08,.31,3.05,2.78,9.33,1.61c1.04,.18,1.79,1.07,1.79,2.13v6.97c0,1.04-.74,1.93-1.76,2.12l-9.41,1.77-2.99,2.78-.08,.31c-.91,3.53-2.32,6.93-4.18,10.1-.85,1.46-.77,3.29,.2,4.67l5.29,7.49c.61,.86,.51,2.03-.24,2.77l-4.93,4.93c-.42,.42-.97,.63-1.53,.63-.42,0-.85-.12-1.22-.38l-7.66-5.23c-.73-.5-1.59-.75-2.44-.75-.75,0-1.5,.19-2.17,.59-3.17,1.86-6.57,3.27-10.11,4.2-1.63,.43-2.86,1.78-3.15,3.45l-1.55,9.02c-.18,1.04-1.07,1.79-2.13,1.79h-6.97c-1.04,0-1.93-.74-2.12-1.76l-2.25-11.93-.73-.12c-4.21-.87-8.24-2.43-11.98-4.62-.67-.39-1.42-.59-2.17-.59-.88,0-1.75,.27-2.5,.79l-7.49,5.29c-.38,.27-.81,.4-1.25,.4-.56,0-1.11-.22-1.53-.64l-4.93-4.93c-.73-.73-.84-1.89-.26-2.75l5.23-7.66c.94-1.38,1-3.19,.16-4.62-1.86-3.17-3.27-6.57-4.2-10.11-.43-1.63-1.78-2.86-3.45-3.15l-9.02-1.55c-1.04-.18-1.79-1.07-1.79-2.13v-6.97c0-1.04,.74-1.93,1.76-2.12l11.97-2.26,.08-.75c.89-4.22,2.45-8.25,4.62-11.96,.85-1.46,.77-3.29-.21-4.67l-5.29-7.49c-.61-.86-.51-2.03,.24-2.77l4.93-4.93c.42-.42,.97-.63,1.53-.63,.42,0,.85,.12,1.22,.38l10,6.83Zm22.44,58.3c-5.94,0-11.92-2.08-17.01-7.17-10.69-10.7-8.11-25.37-.81-35.16,.12-.16,.27-.31,.43-.43,5.13-3.8,11.59-6.31,18.11-6.31,5.94,0,11.93,2.08,17.02,7.17,10.67,10.68,8.09,25.34,.81,35.14-.12,.16-.27,.31-.43,.43-5.13,3.81-11.59,6.33-18.12,6.33m.3-51.27c-5.99,0-12.52,1.98-18.98,6.77-.33,.25-.63,.54-.88,.88-10.9,14.63-7.34,29.62,1.02,37.99,4.66,4.67,11.39,7.84,18.96,7.84,6,0,12.53-1.99,18.99-6.79,.33-.25,.63-.54,.88-.88,10.87-14.64,7.32-29.61-1.02-37.97-4.66-4.67-11.39-7.84-18.97-7.84"/><path class="h" d="M255.94,198.74h-4.71c-1.43,0-2.64,1.05-2.89,2.49l-1.01,6.03-1.3,1.47c-2.75,.76-5.36,1.94-7.77,3.5l-5.96-4.17c-.5-.35-1.08-.52-1.65-.52-.76,0-1.51,.3-2.07,.88l-3.33,3.42c-1.01,1.03-1.14,2.66-.32,3.85l3.58,5.19c.33,.48,.36,1.11,.07,1.61-1.48,2.59-2.55,5.38-3.2,8.29l-7.08,1.37c-1.38,.27-2.39,1.51-2.39,2.95v4.83c0,1.46,1.02,2.71,2.43,2.96l6.1,1.08c.56,.1,1.02,.52,1.16,1.08,.66,2.58,1.67,5.07,3,7.39,.28,.49,.26,1.12-.06,1.59l-3.54,5.31c-.79,1.19-.65,2.79,.35,3.81l3.33,3.42c.57,.58,1.32,.88,2.07,.88,.59,0,1.18-.18,1.69-.55l5.06-3.67c.25-.18,.55-.27,.85-.27,.25,0,.51,.07,.73,.2,2.53,1.52,5.25,2.62,8.08,3.28l1.34,7.26c.26,1.42,1.47,2.44,2.88,2.44h4.71c1.43,0,2.64-1.05,2.88-2.49l1.05-6.25c.1-.58,.51-1.04,1.06-1.19,2.52-.68,4.94-1.71,7.2-3.07,.22-.14,.48-.2,.73-.2,.29,0,.58,.09,.83,.26l5.18,3.62c.5,.35,1.08,.52,1.65,.52,.76,0,1.51-.3,2.07-.88l3.33-3.42c1.01-1.04,1.15-2.66,.32-3.85l-3.58-5.19c-.33-.48-.36-1.11-.07-1.61,1.29-2.26,2.27-4.67,2.93-7.17l1.4-1.34,5.95-1.15c1.38-.27,2.39-1.51,2.39-2.95v-4.83c0-1.46-1.02-2.71-2.43-2.96l-5.89-1.04-1.43-1.34c-.66-2.51-1.65-4.92-2.94-7.17-.28-.49-.26-1.12,.06-1.59l3.54-5.31c.79-1.19,.65-2.79-.35-3.81l-3.33-3.42c-.57-.58-1.32-.88-2.07-.88-.59,0-1.18,.18-1.69,.55l-5.06,3.66c-.25,.18-.55,.27-.84,.27-.25,0-.5-.07-.73-.2-2.19-1.31-4.55-2.32-7-3l-1.3-1.44-1.12-6.1c-.26-1.42-1.47-2.44-2.88-2.44m-17.71,15.3l.43-.29c2.44-1.64,5.12-2.86,7.95-3.62l.21-.06,1.88-2.12,1.09-6.47c.12-.72,.73-1.24,1.44-1.24h4.71c.7,0,1.31,.51,1.44,1.22l1.2,6.52,1.88,2.07,.21,.06c2.4,.64,4.7,1.62,6.84,2.9,.45,.27,.96,.41,1.47,.41,.59,0,1.19-.18,1.69-.55l5.06-3.66c.26-.19,.55-.28,.84-.28,.38,0,.75,.15,1.03,.44l3.33,3.42c.5,.51,.57,1.31,.17,1.91l-3.54,5.31c-.64,.96-.68,2.21-.11,3.2,1.26,2.19,2.21,4.55,2.84,7l.06,.21,2.06,1.93,6.31,1.11c.7,.12,1.21,.74,1.21,1.48v4.83c0,.72-.5,1.34-1.19,1.47l-6.37,1.23-2.03,1.93-.05,.21c-.62,2.45-1.57,4.8-2.83,7-.58,1.01-.52,2.28,.14,3.24l3.58,5.19c.41,.6,.34,1.41-.16,1.92l-3.33,3.42c-.28,.29-.66,.44-1.03,.44-.29,0-.57-.09-.82-.26l-5.18-3.62c-.49-.35-1.07-.52-1.65-.52-.51,0-1.02,.14-1.47,.41-2.14,1.29-4.44,2.27-6.83,2.91-1.1,.3-1.94,1.23-2.13,2.39l-1.05,6.25c-.12,.72-.73,1.24-1.44,1.24h-4.71c-.7,0-1.31-.51-1.44-1.22l-1.52-8.27-.49-.08c-2.85-.61-5.57-1.69-8.11-3.2-.45-.27-.96-.41-1.47-.41-.59,0-1.19,.19-1.69,.55l-5.07,3.67c-.25,.19-.55,.28-.84,.28-.38,0-.75-.15-1.03-.44l-3.33-3.42c-.5-.51-.57-1.31-.17-1.9l3.53-5.31c.64-.95,.68-2.21,.11-3.2-1.26-2.2-2.21-4.56-2.84-7.01-.29-1.13-1.2-1.98-2.33-2.18l-6.1-1.08c-.7-.12-1.21-.74-1.21-1.48v-4.83c0-.72,.5-1.34,1.19-1.47l8.09-1.56,.06-.52c.6-2.93,1.66-5.72,3.12-8.29,.58-1.01,.52-2.28-.14-3.24l-3.58-5.19c-.41-.6-.34-1.41,.16-1.92l3.33-3.42c.28-.29,.66-.44,1.03-.44,.29,0,.57,.09,.82,.26l6.77,4.73Zm15.18,40.41c-4.01,0-8.06-1.44-11.5-4.97-7.23-7.41-5.48-17.59-.55-24.38,.08-.11,.18-.21,.29-.3,3.47-2.64,7.84-4.38,12.25-4.38,4.02,0,8.07,1.44,11.51,4.97,7.21,7.4,5.47,17.57,.55,24.36-.08,.11-.18,.21-.29,.3h0c-3.47,2.64-7.84,4.39-12.26,4.39m.2-35.54c-4.05,0-8.46,1.37-12.83,4.69-.23,.17-.43,.38-.59,.61-7.37,10.14-4.96,20.53,.69,26.33,3.15,3.23,7.7,5.43,12.82,5.43,4.06,0,8.47-1.38,12.84-4.71,.23-.17,.43-.38,.59-.61,7.35-10.15,4.95-20.53-.69-26.32-3.15-3.23-7.7-5.43-12.83-5.43"/><path class="g" d="M287.91,226.45c36.16,0,65.47-28.59,65.47-63.86s-29.31-63.86-65.47-63.86-65.47,28.59-65.47,63.86,29.31,63.86,65.47,63.86"/><path class="g" d="M205.43,226.45c28.45,0,51.51-23.03,51.51-51.44s-23.06-51.44-51.51-51.44-51.51,23.03-51.51,51.44,23.06,51.44,51.51,51.44"/><rect class="g" x="201.53" y="185.66" width="86.38" height="40.8"/><path class="d" d="M280.98,182.89c0,1.83,.96,2.79,2.79,2.79h3.3c1.83,0,2.79-.96,2.79-2.79v-30.67c0-1.82-.96-2.79-2.79-2.79h-3.3c-1.82,0-2.79,.96-2.79,2.79v30.67Zm-24.89-16.02v-9.83h4.51c2.94,0,4.46,1.98,4.46,4.87s-1.52,4.97-4.61,4.97h-4.36Zm-8.87,16.02c0,1.83,.96,2.79,2.79,2.79h3.29c1.83,0,2.79-.96,2.79-2.79v-8.42h6.19c7.05,0,11.81-5.27,11.81-12.57s-4.77-12.47-11.81-12.47h-12.27c-1.83,0-2.79,.96-2.79,2.79v30.67Zm-26.21-11.91l2.08-7.05c.66-2.28,1.47-6.24,1.47-6.24h.1s.81,3.96,1.47,6.24l2.03,7.05h-7.15Zm-12.32,11.51c-.66,1.93,.25,3.19,2.28,3.19h3.35c1.62,0,2.64-.76,3.09-2.33l1.52-5.27h11.31l1.52,5.27c.51,1.57,1.52,2.33,3.14,2.33h3.35c2.03,0,2.94-1.27,2.28-3.19l-10.49-30.77c-.51-1.57-1.52-2.28-3.14-2.28h-4.56c-1.62,0-2.64,.71-3.14,2.28l-10.49,30.77Z"/><path class="d" d="M196.15,200.32c-2.49,0-4.5,2.02-4.5,4.5s2.01,4.5,4.5,4.5h107c2.48,0,4.5-2.01,4.5-4.5s-2.02-4.5-4.5-4.5h-107Z"/><path class="h" d="M196.65,199.32c-3.04,0-5.5,2.46-5.5,5.5s2.46,5.5,5.5,5.5h70c3.04,0,5.5-2.46,5.5-5.5s-2.46-5.5-5.5-5.5h-70Z"/></g></g></svg>